<svg width="894" height="686" viewBox="0 0 894 686" fill="none" xmlns="http://www.w3.org/2000/svg">
<path d="M38.7629 253.276L27.5011 260.542C26.6464 261.093 25.6048 261.275 24.6136 261.047C22.1507 260.478 19.8384 262.45 20.0112 264.972L22.0049 294.08C22.1089 295.599 22.6389 297.057 23.5342 298.288C25.1709 300.539 25.5369 303.472 24.5035 306.056L23.7082 308.044C22.7081 310.544 22.5802 313.309 23.3453 315.891L23.882 317.702C25.33 322.589 28.8468 326.597 33.5046 328.667L49.9975 335.997C52.0853 336.925 54.3446 337.404 56.6293 337.404C59.2793 337.404 61.8895 338.049 64.2345 339.283L64.5142 339.431C68.1645 341.352 71.0244 344.494 72.595 348.308L73.0852 349.498C73.4696 350.432 73.9706 351.313 74.5763 352.121C76.8348 355.132 80.3794 356.904 84.1437 356.904H86.3155C88.8464 356.904 91.3426 357.494 93.6063 358.625L95.8775 359.761C98.0504 360.847 100.007 362.321 101.652 364.108L108.071 371.086C109.763 372.925 111.956 374.227 114.379 374.833C115.89 375.211 117.457 375.309 119.003 375.124L125.17 374.384C127.779 374.071 130.423 374.506 132.793 375.64L136.897 377.603C139.199 378.704 140.664 381.028 140.664 383.58C140.664 385.085 141.176 386.544 142.116 387.719L144.401 390.575C145.893 392.44 147.76 393.971 149.882 395.069L158.909 399.738C160.406 400.512 161.8 401.473 163.056 402.597L170.664 409.404L176.341 415.933C179.149 419.162 182.918 421.405 187.095 422.333L187.521 422.428C188.945 422.745 190.397 422.904 191.857 422.904H214.164C222.791 422.904 230.549 426.873 234.55 429.675L234.628 429.73C235.709 430.487 236.79 431.244 237.95 431.874L250.642 438.764C252.504 439.775 253.664 441.724 253.664 443.843C253.664 445.474 254.354 447.029 255.562 448.125L268.022 459.416C269.079 460.374 270.454 460.904 271.88 460.904C272.726 460.904 273.561 461.091 274.326 461.451L277.619 463.001C280.283 464.254 283.191 464.904 286.135 464.904H291.097C293.781 464.904 296.437 465.444 298.908 466.493L306.623 469.765C309.923 471.166 312.786 473.427 314.913 476.313L315.742 477.439C317.661 480.043 320.184 482.144 323.094 483.559L333.028 488.392C335.75 489.716 338.136 491.641 340.005 494.021L340.978 495.259C342.097 496.683 343.017 498.252 343.714 499.923L344.353 501.459C346.467 506.531 350.574 510.51 355.711 512.462L369.473 517.692C371.415 518.43 373.609 517.959 375.078 516.49C376.869 514.699 379.679 514.433 381.774 515.856L401.867 529.504C403.714 530.759 405.301 532.36 406.54 534.218L406.771 534.564C409.256 538.293 413.165 540.836 417.581 541.597C422.383 542.425 426.564 545.355 428.982 549.586L430.377 552.027C433.402 557.32 438.677 560.945 444.702 561.872C446.992 562.224 449.204 562.972 451.239 564.081L453.664 565.404L460.213 570.167C463.126 572.286 465.413 575.152 466.832 578.463L467.893 580.938C468.735 582.903 469.887 584.72 471.304 586.32L482.262 598.693C483.851 600.486 485.748 601.979 487.864 603.101L515.257 617.628C516.854 618.475 518.329 619.535 519.642 620.778L533.696 634.092C535.517 635.817 538.152 636.373 540.514 635.529C542.496 634.821 544.696 635.092 546.447 636.26L554.097 641.36C555.139 642.055 556.245 642.65 557.398 643.138L566.789 647.111C568.036 647.639 569.333 648.038 570.66 648.303L584.104 650.992C588.667 651.905 592.792 654.363 595.637 658.047C597.173 660.037 598.578 661.928 599.164 662.904C599.832 664.017 603.111 664.769 606.692 665.245C611.784 665.923 616.808 664.003 620.651 660.595L639.967 643.466C640.748 642.773 641.31 641.868 641.585 640.861C642.222 638.525 644.344 636.904 646.765 636.904H648.751C650.324 636.904 651.863 636.439 653.172 635.566L676.307 620.142C677.49 619.354 678.287 618.104 678.503 616.699C678.883 614.228 681.009 612.404 683.509 612.404H684.585C685.62 612.404 686.637 612.134 687.535 611.621C688.899 610.842 690.511 610.669 692.068 610.875C696.843 611.506 703.972 610.799 706.664 604.404C708.621 599.757 707.686 597.241 706.055 595.988C704.995 595.173 704.28 593.289 705.225 592.344C705.506 592.062 705.888 591.904 706.285 591.904H708.434C709.247 591.904 710.054 591.756 710.814 591.466L717.023 589.101C719.094 588.312 720.974 587.094 722.541 585.528L723.711 584.357C724.667 583.402 725.387 582.237 725.814 580.955C726.368 579.293 727.41 577.837 728.805 576.777L736.583 570.866C738.163 569.665 740.289 569.467 742.064 570.354C742.787 570.716 743.585 570.904 744.394 570.904H745.597C747.283 570.904 748.943 570.491 750.431 569.7L762.151 563.474C763.47 562.773 764.581 561.738 765.372 560.472L765.719 559.916C766.337 558.928 766.664 557.786 766.664 556.621V554.476C766.664 552.227 768.487 550.404 770.736 550.404C771.66 550.404 772.557 550.09 773.279 549.512L773.922 548.998C774.414 548.604 774.84 548.138 775.22 547.636C777.342 544.832 781.655 540.404 785.664 540.404C788.565 540.404 792.786 540.114 796.232 539.821C799.154 539.573 801.965 538.619 804.476 537.104L820.396 527.497C826.148 524.026 829.664 517.798 829.664 511.079V498.115C829.664 494.685 832.445 491.904 835.875 491.904C837.649 491.904 839.33 491.138 840.567 489.867C843.717 486.632 848.606 482.198 852.164 480.904C854.932 479.898 860.484 476.068 865.508 472.327C870.413 468.676 873.13 462.838 873.073 456.724L872.691 416.28C872.674 414.412 872.059 412.598 870.938 411.103C870.101 409.987 869.015 409.089 867.76 408.479C855.95 402.735 837.073 393.462 823.678 386.632C815.161 382.289 812.564 372.587 813.338 363.058C813.673 358.937 813.73 353.324 814.164 342.904C814.88 325.717 796.15 319 783.727 317.303C781.054 316.938 778.425 316.291 776.007 315.094C761.368 307.847 736.894 295.721 722.574 288.597C717.824 286.235 714.424 281.958 711.848 277.321C703.294 261.923 687.526 256.383 675.298 254.983C667.874 254.133 660.299 251.075 654.163 246.812C647.864 242.435 639.553 238.101 632.049 235.835C624.943 233.689 617.284 230.609 611.056 226.569C604.921 222.59 597.056 219.014 589.823 217.359C584.392 216.116 579.002 214.064 574.631 210.61C565.844 203.665 554.704 197.856 543.317 195.741C538.441 194.835 533.742 192.928 529.85 189.854C520.631 182.573 508.936 176.386 498.093 174.365C491.368 173.111 484.52 170.637 479 166.598C471.624 161.201 461.468 155.885 452.291 154.046C445.46 152.677 438.296 150.732 432.858 146.376C427.015 141.695 420.187 137.619 412.241 135.819C405.481 134.288 398.9 131.163 393.326 127.043C384.644 120.624 373.004 117.062 363.676 115.81C357.412 114.969 351.339 112.425 346.379 108.508C341.211 104.427 335.117 101.145 327.948 99.1105C322.743 97.6336 318.019 94.7268 313.849 91.2794C308.31 86.7004 301.822 84.1272 295.807 82.6763C288.229 80.848 280.767 76.1064 273.891 72.4315C271.741 71.2822 269.276 70.2214 266.537 69.3138C261.879 67.7698 257.669 65.0457 253.83 61.9892C245.18 55.1032 233.63 52.976 225.571 52.7505C222.024 52.6513 218.467 52.1194 215.247 50.6301L185.571 36.905C182.043 35.2733 178.817 32.7926 175.553 30.6821C172.217 28.525 166.853 25.5678 158.664 21.9044C139.664 13.4044 101.164 34.4044 100.164 73.9044C99.4836 100.783 114.913 109.791 126.205 111.575C129.749 112.135 133.335 112.793 136.503 114.478L145.223 119.116C151.395 122.399 155.405 128.667 155.799 135.647L158.504 183.567C158.61 185.443 158.372 187.322 157.802 189.113C156.165 194.259 151.955 198.175 146.703 199.435L120.932 205.62C118.769 206.139 116.707 207.016 114.832 208.214L83.9191 227.964C82.4224 228.92 81.0598 230.071 79.8671 231.387L71.344 240.792C68.6218 243.796 65.051 245.902 61.105 246.83L45.0248 250.614C42.8008 251.137 40.6828 252.037 38.7629 253.276Z" stroke="black" stroke-width="40" stroke-linecap="round"/>
</svg>
