<svg width="770" height="567" viewBox="0 0 770 567" fill="none" xmlns="http://www.w3.org/2000/svg">
<path d="M55 471.19C61.6734 470.404 84.6232 459.603 95.8725 454.003C96.2961 453.792 96.6953 453.554 97.0844 453.285L99.0968 451.892C101.567 450.182 103.137 447.452 103.374 444.457L104.11 435.133C104.356 432.018 106.043 429.197 108.671 427.508L112.961 424.75C116.322 422.59 118.074 418.636 117.417 414.694L116.664 410.173C116.242 407.641 116.932 405.05 118.557 403.064C119.816 401.525 121.553 400.452 123.492 400.014L131.793 398.139C134.478 397.533 136.795 395.847 138.196 393.478L148.489 376.087C149.773 373.918 150.108 371.316 149.415 368.893L149.242 368.286C148.763 366.608 148.888 364.816 149.597 363.222C150.186 361.896 151.15 360.771 152.371 359.987L152.978 359.597C155.796 357.785 157.485 354.657 156.949 351.349C156.655 349.536 156.224 347.37 155.61 344.913C154.53 340.59 156.047 335.837 160.33 334.606C163.037 333.828 165.818 333.416 168.269 333.229C171.812 332.959 175.249 331.397 177.281 328.482L194.016 304.472C195.885 301.789 198.949 300.189 202.22 300.189H211.148C214.492 300.189 217.614 298.52 219.463 295.734C224.51 288.126 232.288 276.334 237.5 268.189C243.9 258.189 253.5 259.356 257.5 261.189C260 262.023 269.4 264.289 287 266.689C304.6 269.089 315 260.689 318 256.189C330 238.856 355.4 202.189 361 194.189C368 184.189 371 177.189 369.5 152.689C368.502 136.396 360.526 129.801 354.703 127.847C353.229 127.353 352.131 125.96 352.979 124.656C353.454 123.925 354.545 123.334 355.403 123.489C363.624 124.976 376.631 123.018 385.061 121.221C387.893 120.617 390.848 121.204 393.526 122.307C397.887 124.104 404.44 125.559 412.085 124.431C417.03 123.702 422.74 125.45 427.415 127.22C432.821 129.268 440.086 130.045 445.869 130.207C449.091 130.298 452.162 131.736 454.656 133.78C457.644 136.228 462.131 139.11 468.026 141.328C471.609 142.676 474.446 145.643 476.366 148.955C478.306 152.299 481.058 155.579 483.672 158.273C486.686 161.379 487.917 166.055 488.392 170.357C488.886 174.827 490.866 180.622 496 186.689C504.8 197.089 499.667 202.356 496 203.689C492.921 205.167 487.73 209.485 485.715 216.804C484.361 221.721 480.93 226.63 477.715 230.588C471.471 238.277 468.2 253.205 466.79 265.158C466.163 270.473 461.785 274.689 456.432 274.689H419C400.6 274.689 393.667 284.023 392.5 288.689C373.833 341.856 335.7 450.189 332.5 458.189C328.5 468.189 326 478.189 329 503.189C331.4 523.189 343.667 529.189 349.5 529.689C404.333 535.189 518 546.189 534 546.189C549.606 546.189 560.772 528.114 564.715 518.408C564.91 517.928 565.051 517.455 565.16 516.948C575.886 467.344 597.714 366.426 600.5 353.689C604 337.689 601.5 338.689 598.5 310.689C596.1 288.289 580.167 283.356 572.5 283.689L529.47 279.855C525.241 279.478 522 275.935 522 271.689C522.483 258.155 521.896 249.901 521.098 245.232C520.581 242.21 520.871 238.267 523.5 236.689C532.337 231.573 531.656 228.62 529.505 211.733C529.176 209.146 530.03 206.575 530.935 204.13C533.53 197.121 531.21 187.735 528.691 181.438C527.712 178.99 527.515 176.289 527.909 173.682C528.916 167.015 528.162 157.192 520.73 150.315C518.31 148.077 516.47 145.193 515.727 141.981C513.262 131.328 505.968 124.667 500.105 121.305C497.336 119.717 495.003 117.345 493.462 114.549C489.565 107.477 481.184 98.7607 467.098 98.0553C463.622 97.8812 460.318 96.37 457.628 94.1611C451.704 89.2965 442.344 86.221 429.379 88.1412C424.962 88.7953 420.147 86.9123 415.908 85.5115C412.215 84.2912 407.65 83.9102 403.748 83.9227C400.937 83.9317 398.5 81.7416 398.5 78.931C398.5 76.1265 400.924 73.93 403.729 73.9233C411.674 73.9044 423.304 72.38 432.288 66.7718C435.389 64.8366 439.149 64.0182 442.773 64.4933C452.161 65.7244 462.25 63.1984 468.914 60.6715C471.858 59.5555 475.138 59.5626 478.098 60.6336C484.781 63.0518 494.805 65.1761 504.474 63.3117C509.735 62.2973 515.891 64.0756 520.894 65.9927C526.708 68.2205 534.27 68.2564 540.28 67.5979C543.843 67.2076 547.446 68.3804 550.233 70.6341C555.329 74.7546 563.268 79.4262 572.409 80.5051C575.864 80.9129 579.169 82.4682 581.267 85.2442C587.321 93.2561 590.145 94.0398 599.996 100.064C603.864 102.43 605.031 107.472 606.603 111.725C607.761 114.859 610.2 117.772 613.071 120.838C616.681 124.692 617.026 131.192 616.682 136.462C616.384 141.041 616.942 146.262 617.596 150.067C617.838 151.472 617.84 152.91 617.531 154.302L616.192 160.328C616.064 160.901 615.886 161.462 615.66 162.004L614.336 165.183C613.785 166.505 613.524 167.927 613.573 169.359C613.935 179.95 614.627 198.46 615 202.189C615.319 205.378 617.566 208.991 619.308 211.254C620.061 212.232 621.161 212.899 621.945 213.853C622.822 214.92 623.324 216.571 622 218.689C617.5 226.189 621.5 267.689 622 274.689C622.333 279.354 626.853 297.757 630.183 310.71C631.256 314.883 634.903 317.871 639.204 318.14L642.92 318.372C646.112 318.571 649.016 320.286 650.733 322.984L652.104 325.139C653.912 327.979 657.027 329.719 660.394 329.769L686.192 330.148C688.022 330.175 689.82 329.657 691.355 328.659C695.591 325.905 702.264 326.643 707.317 326.689C707.377 326.689 707.439 326.689 707.5 326.689C714 326.689 729 319.689 733.5 316.189C736.24 314.058 740.505 307.544 743.563 302.422C745.143 299.774 745.279 296.537 744.122 293.679C742.804 290.422 741.5 286.98 741.5 286.189C741.5 284.689 746.5 276.689 748.5 275.189C749.286 274.6 749.622 273.906 749.72 273.273C749.885 272.211 749.115 271.293 748.232 270.68C747.043 269.853 745.133 268.743 742.5 267.689C731.492 263.894 696.5 230.38 677.859 211.587C676.014 209.727 675 207.226 675 204.606V178.689C675 168.189 674.5 167.189 671 163.189C669.411 161.373 666.781 159.579 664.315 158.153C661.8 156.698 659.277 153.587 659.5 150.689C659.969 144.595 656.482 122.677 646.566 110.074C645.296 108.46 644.347 106.586 643.969 104.567C640.08 83.8074 631.326 76.9803 622.027 72.3545C619.781 71.2371 617.997 69.3863 616.851 67.1548C611.496 56.7311 602.669 48.7202 587.7 45.7918C585.329 45.328 583.137 44.166 581.45 42.4365C569.234 29.9115 559.222 29.2956 547.912 30.9592C545.097 31.3732 542.259 30.6148 539.791 29.2014C529.679 23.4117 516.345 22.9322 504.664 24.1702C501.994 24.4531 499.342 23.6661 496.902 22.545C488.463 18.6664 475.476 19.3415 460.95 23.7499C459.021 24.3351 456.964 24.3767 455.012 23.8758C443.937 21.034 435.337 21.0513 422.449 29.28C419.335 31.2689 415.375 31.4701 411.68 31.4306C401.91 31.3262 389.496 39.2467 382.545 45.6374C379.517 48.421 375.229 50.0849 371.262 51.169C365.97 52.615 359.735 56.2356 353.284 60.8491C349.774 63.3593 345.101 63.4108 340.991 62.0928C335.632 60.3739 330.203 60.3346 326.542 60.7635C324.861 60.9604 323.093 61.0962 321.484 61.6191C318.571 62.5655 313.1 65.1298 303.999 70.9066C302.685 71.7406 301.19 72.2587 299.656 72.5176C286.366 74.7599 274.658 83.1584 267.671 89.7617C264.689 92.5804 260.439 93.8582 256.53 92.6086C243.162 88.3344 221.55 81.5628 206.978 77.4637C206.323 77.2794 205.65 77.1637 204.97 77.1253C190.282 76.2949 183.716 79.6702 181.634 82.1712C181.122 82.7861 180.765 83.5186 180.3 84.1697L134.07 148.892C133.691 149.422 133.263 149.909 132.797 150.365C126.94 156.1 116.384 169.051 116 180.19C115.448 197.846 124.379 209.54 133.145 216.192C138.238 220.055 140.836 227.356 137.497 232.807L122.794 256.811C120.797 260.072 120.944 264.211 123.166 267.322C125.472 270.551 125.547 274.855 123.335 278.15C89.6323 328.357 27.97 420.177 24.5 425.19C20.9 430.39 20 436.356 20 438.69C20.6667 443.69 23.4 456.09 29 465.69C36 477.69 46.5 472.19 55 471.19Z" stroke="black" stroke-width="40"/>
</svg>
