<svg width="153" height="55" viewBox="0 0 153 55" fill="none" xmlns="http://www.w3.org/2000/svg">
<path d="M150.281 33.6365C127.481 -5.96352 91.7812 0.469813 76.7812 8.63648C68.2812 51.6362 104.281 52.6367 119.781 51.1367C115.781 51.1367 113.115 45.4701 112.281 42.6367C115.781 45.8034 126.081 50.8367 139.281 45.6367C136.081 46.4367 130.948 37.9699 128.781 33.6365C130.448 36.1365 137.081 39.6365 150.281 33.6365Z" fill="#C1B6B0" stroke="black" stroke-width="5" stroke-linejoin="round"/>
<path d="M94.643 7.35673C93.381 7.7725 92.369 8.66671 91.8472 9.88686C91.3243 11.1044 91.3344 12.5481 91.8576 13.8561C92.3809 15.1641 93.3692 16.2165 94.5876 16.7376C95.807 17.2612 97.1565 17.2107 98.357 16.6414C98.357 16.6414 98.357 16.6414 98.357 16.6414C98.8068 16.4047 99.3555 16.1866 99.9411 16.0085C111.918 13.2139 127.786 19.6606 137.849 29.8675C138.424 30.4503 138.977 31.0397 139.522 31.6534C139.833 32.0041 140.284 32.2204 140.765 32.265C141.246 32.309 141.716 32.1778 142.085 31.8897C142.454 31.6017 142.695 31.1775 142.77 30.7002C142.843 30.2235 142.743 29.7327 142.478 29.3461C142.478 29.3461 142.478 29.3461 142.478 29.3461C141.975 28.6165 141.46 27.9093 140.918 27.2054C130.955 14.9525 116.522 5.08564 97.9128 6.53571C96.8552 6.70876 95.7438 6.9723 94.643 7.35673Z" fill="#D3C6BE"/>
<path d="M84.9247 28.981C85.1012 29.0842 85.2194 29.2657 85.2655 29.4236C85.2804 29.4729 85.1532 29.5021 85.1576 29.5389C85.1658 29.6111 85.2668 29.6356 85.2649 29.7112C85.2634 29.7367 85.0663 29.7967 85.0683 29.8219C85.0789 29.9607 85.2084 30.036 85.2587 30.1575C85.4992 30.7601 85.8201 31.3042 86.1386 31.8614C86.2443 32.0429 86.1937 32.3733 86.4317 32.4849C86.4599 32.4975 86.6639 32.3558 86.6847 32.3488C87.0061 32.2402 86.5565 32.4852 86.5312 32.5588C86.4322 32.8491 86.5514 33.04 86.762 33.1264C86.8523 33.1628 87.2417 32.8108 87.0473 33.0342C87.0342 33.0496 86.7835 33.191 86.7727 33.2245C86.7486 33.3004 86.8538 33.3445 86.8606 33.3866C86.8723 33.469 86.8828 33.4769 86.9271 33.5325C86.9859 33.6097 86.9412 33.7812 87.0654 33.8204C87.0927 33.828 87.3228 33.6288 87.3892 33.6239C87.4555 33.6191 87.4981 33.7007 87.4603 33.7665C87.4225 33.8322 87.2158 33.9665 87.1743 34.0036C86.8223 34.3181 87.4255 34.0112 87.4487 34.0097C87.8467 34.024 87.6911 34.4062 87.8577 34.5792C87.9849 34.7075 88.2211 34.755 88.3296 34.8836C88.4583 35.0382 88.4416 35.2783 88.6094 35.3913C88.6268 35.4033 88.9115 35.1108 88.9333 35.1243C89.1666 35.2685 89.3285 35.461 89.328 35.8357C89.3278 35.8737 89.0384 36.115 89.0226 36.1694C88.9308 36.4926 88.619 37.228 89.8272 36.0823C89.8677 36.1979 89.926 36.329 89.7783 36.643C89.6834 36.8457 89.3535 37.1173 89.5361 37.0363C89.5767 37.018 89.8039 36.729 89.846 36.7217C90.0225 36.6902 90.0393 36.8565 90.2525 36.7786C90.2964 36.762 90.5086 36.505 90.5527 36.4632C90.9106 36.1235 90.4587 36.7887 90.4371 36.8467C90.2748 37.2727 90.4735 37.208 90.5772 37.2975C90.6013 37.3186 90.8563 36.9421 90.8895 36.9491C91.0576 36.9898 91.1659 37.1128 91.1715 37.3655C91.1721 37.4227 90.9079 37.7158 90.8962 37.7594C90.8484 37.9488 91.3075 37.3652 91.2684 37.5328C91.2608 37.5675 91.0523 37.8325 91.0323 37.8637C90.7201 38.3541 91.2428 37.7155 91.2623 37.7065C91.5227 37.583 91.0888 38.3314 91.2758 38.3117C91.2984 38.3082 91.5174 37.9379 91.5654 37.9491C91.8893 38.023 92.0777 38.283 92.1519 38.7405C92.1635 38.811 91.9571 39.0674 91.9377 39.1028C91.639 39.6591 92.1238 38.9671 92.1532 38.9478C92.3775 38.8173 92.0996 39.4796 92.7026 38.666C92.91 39.1192 93.4168 39.0535 93.6171 39.5466C93.6672 39.6685 93.7012 39.8257 93.7049 40.0313C93.7057 40.0437 93.4974 40.4072 93.5001 40.4304C93.5308 40.7136 93.811 40.1251 94.2715 39.469C94.3863 39.3039 94.0123 40.1925 93.987 40.2586C93.8909 40.501 93.5799 41.0408 93.5647 41.0895C93.4507 41.4745 94.3844 39.6405 94.4687 39.684C94.4698 39.6885 94.2861 40.0197 94.2762 40.0569C94.245 40.1739 94.3358 40.0515 94.2989 40.1792C94.2128 40.4741 93.783 41.3758 94.125 40.8974C94.1688 40.8351 94.6756 39.7855 94.728 39.8742C94.7474 39.91 94.8887 39.9595 94.8934 40.0462C94.898 40.1328 94.7084 40.4567 94.7039 40.4726C94.5913 40.9696 94.4627 41.1348 94.1989 41.8211C93.9383 42.5052 94.6756 40.9288 94.7807 40.7641C94.8854 40.5999 94.7872 41.0057 94.7464 41.1431C94.7052 41.2805 94.5795 41.4835 94.5627 41.5643C94.4561 42.0931 94.9802 40.8084 95.1343 40.5769C95.496 40.028 95.0215 41.2268 95.0537 41.3799C95.062 41.4212 95.1654 41.1469 95.1965 41.1314C95.3167 41.0726 95.1968 41.4574 95.434 41.1637C95.4733 41.1158 95.8544 40.4463 95.6707 40.9822C95.6443 41.0595 95.4969 41.3419 95.501 41.422C95.5069 41.5421 95.5691 41.6458 95.665 41.5725C95.7358 41.5182 95.8985 41.0189 95.8832 41.19C95.8764 41.2663 95.7142 41.5283 95.7121 41.6482C95.7098 41.7681 95.8228 41.8027 95.868 41.8108C95.9132 41.8187 96.0445 41.4459 96.0582 41.4229C96.1375 41.2915 96.2882 41.1508 96.2948 41.1543C96.6438 41.26 96.7138 42.0014 97.1386 41.9403C97.1714 41.936 97.2989 41.5504 97.3054 41.5459C97.457 41.4254 97.0006 42.4016 96.9359 42.7627C97.2195 41.9923 97.2034 42.1459 97.2985 42.0872C97.3445 42.0583 97.4399 41.7554 97.4542 41.7261C97.6684 41.2947 97.4802 41.8885 97.4441 42.0104C97.3103 42.459 97.5363 41.9562 97.4479 42.2559C97.3609 42.5532 97.1526 42.964 97.2177 42.9817C97.3364 42.7156 97.5562 41.9844 97.6453 41.8874C97.9781 41.5218 98.1022 42.211 98.2308 42.322C98.3555 42.4342 98.4144 42.4005 98.4642 42.528C98.5537 42.7573 98.6759 42.2204 98.8469 42.0205C99.0177 41.8214 98.5472 43.0679 98.4689 43.3446C98.3911 43.6206 98.5001 43.3461 98.4669 43.5008C98.434 43.6553 98.3349 43.8281 98.3566 43.8967C98.3788 43.9647 98.6497 43.5185 98.7566 43.2417C98.9839 42.6545 99.1432 42.01 99.1722 42.2689C99.1739 42.2841 99.0464 42.6061 99.0582 42.6477C99.1556 42.9657 99.3464 43.0483 99.454 43.3264C99.4692 43.3652 99.3341 43.7167 99.3419 43.7431C99.4233 44.0187 99.5581 43.3979 99.8465 42.7592C99.5528 43.6407 99.4306 44.1983 99.5489 44.2359C99.6196 44.2592 99.7248 43.871 99.8526 43.6146C99.8908 43.5374 99.8611 43.8156 99.9247 43.6384C100.132 43.0601 100.284 42.3867 100.323 42.6906C100.324 42.7048 100.211 43.0195 100.224 43.0451C100.303 43.2109 100.498 42.6062 100.644 42.5794C100.76 42.5596 100.821 42.9862 100.915 43.0815C100.641 44.0316 100.811 43.8425 101.037 43.2073C101.101 43.2578 101.19 43.2474 101.235 43.3591C101.251 43.3972 101.161 43.6614 101.155 43.6915C101.077 44.1616 101.281 43.5481 101.304 43.5293C101.539 43.3495 101.556 43.8549 101.843 43.4584C101.853 43.4438 102.028 42.8238 101.951 43.2935C101.945 43.3254 101.817 43.5924 101.887 43.6377C101.956 43.6844 102.015 44.0542 102.195 43.8031C102.238 43.7421 102.428 43.2731 102.382 43.672C102.376 43.7259 102.324 43.8962 102.31 43.9951C102.265 44.3094 102.437 43.7092 102.346 44.2335C102.254 44.7581 102.243 45.1536 102.444 44.8288C102.45 44.8192 102.593 44.3553 102.626 44.3721C102.679 44.3988 102.735 44.5155 102.794 44.5266C102.823 44.5319 102.875 44.2412 102.881 44.2371C103.109 44.1289 103.176 44.4178 103.349 44.5707C103.381 44.5982 103.571 44.2554 103.573 44.5643C103.578 44.8995 103.191 46.2017 103.451 45.9106C103.558 45.7889 104.017 44.1853 103.96 45.0517C104.262 44.9032 104.416 45.3567 104.725 45.1266C104.739 45.1163 104.863 44.7116 104.888 44.7242C104.925 44.7431 104.906 44.9387 104.932 44.9571C105.039 45.0388 105.181 44.903 105.291 44.9538C105.332 44.9723 105.279 45.1564 105.329 45.1769C105.38 45.1966 105.464 44.9618 105.512 45.0934C105.547 45.194 105.505 45.6883 105.568 45.7515C105.665 45.279 105.713 45.2972 105.825 45.1917C105.847 45.1714 105.861 45.0065 105.873 44.9887C105.921 44.9134 105.925 45.0529 105.974 44.9705C105.985 44.9508 106.016 44.7951 106.028 44.7704C106.122 44.5559 106.135 44.9256 106.139 44.987C106.149 45.2252 106.213 45.0337 106.238 45.131C106.263 45.2269 106.179 45.3239 106.218 45.3858C106.3 45.5124 106.439 45.5078 106.543 45.531C106.585 45.5391 106.592 45.3478 106.599 45.3446C106.694 45.3153 106.747 45.5219 106.861 45.1735C106.751 46.1072 106.93 45.0942 107.02 45.3052C107.028 45.3222 106.963 45.7454 106.913 45.8037C106.863 45.8626 106.83 45.7214 106.758 45.815C106.741 45.8358 106.592 46.2438 106.577 46.2701C106.46 46.4679 106.575 45.795 106.578 45.7569C106.607 45.3499 106.434 45.7961 106.404 45.8286C106.27 45.9674 106.199 45.8608 106.089 45.9631C106.018 46.0294 105.919 46.5088 105.875 46.4946C105.73 46.451 105.815 45.745 105.546 46.3467C105.488 46.476 105.408 47.0351 105.38 46.5957C105.378 46.5693 105.376 46.1575 105.275 46.4152C105.262 46.4478 105.228 46.6149 105.217 46.629C105.144 46.7202 105.135 46.5859 105.062 46.6502C104.989 46.7147 104.897 46.8143 104.841 46.7558C104.808 46.7212 104.824 46.3924 104.821 46.3103C104.816 46.0739 104.678 46.4551 104.704 46.1679C104.732 45.8765 104.887 45.4494 104.841 45.2483C104.739 45.7177 104.63 46.1998 104.524 46.6734C104.329 46.6552 104.18 46.4934 103.971 46.5037C103.946 46.5058 103.912 46.7762 103.883 46.7859C103.759 46.8272 103.704 46.6284 103.57 46.7021C103.466 46.7602 103.299 47.0563 103.186 47.1326C103.267 46.5244 103.082 46.7222 102.995 46.6615C102.964 46.64 103.006 46.4733 102.994 46.417C102.948 46.2075 102.861 46.766 102.815 46.8523C102.615 47.2244 102.905 45.9557 102.773 45.9699C102.766 45.9694 102.518 46.649 102.495 46.6921C102.351 46.9677 102.54 46.4508 102.505 46.3955C102.441 46.2944 102.424 46.1192 102.273 46.3151C102.229 46.3724 102.049 46.8098 102.077 46.4615C102.081 46.4158 102.143 46.1803 102.141 46.1658C102.091 45.9217 101.902 46.6664 101.775 46.9167C101.648 47.1678 101.683 46.6406 101.702 46.4865C101.751 46.0902 101.783 46.324 101.796 46.2859C101.943 45.8352 101.855 45.9044 101.813 45.8583C101.996 45.1109 101.914 45.1413 101.769 45.8133C101.753 45.8865 101.811 45.8226 101.813 45.8583C101.581 46.5833 101.472 46.6765 101.563 45.9708C101.606 45.6395 101.743 45.2656 101.585 45.3827C101.513 45.4358 101.397 45.966 101.309 46.1031C101.11 46.419 101.083 45.9001 100.943 45.9589C100.891 45.981 100.854 46.2833 100.816 46.309C100.713 46.379 100.704 46.1454 100.592 46.2487C100.582 46.2585 100.514 46.5747 100.487 46.5755C100.286 46.5889 100.178 46.3629 99.9849 46.3272C99.8905 46.3097 99.6754 46.4654 99.5818 46.4123C99.4232 46.3248 99.357 45.802 99.1773 45.8906C99.0598 45.9478 98.9779 46.2883 98.8665 46.5106C98.6494 46.9434 98.7559 46.1187 98.7774 45.9891C98.7782 45.9848 98.8837 45.9212 98.8948 45.7382C98.9828 45.3697 98.7789 45.9876 98.7774 45.9891C98.79 45.9065 98.6541 45.7956 98.6019 45.8542C98.5733 45.8863 98.4805 46.2128 98.4674 46.2236C98.1629 46.4729 97.8982 46.5118 97.7264 46.3091C97.7246 46.3015 97.8534 45.9321 97.8479 45.9189C97.7745 45.724 97.5412 46.1593 97.3417 46.4077C97.1427 46.6557 97.0869 46.5474 97.2484 45.8859C97.141 45.9481 97.1297 45.634 97.1235 45.4407C97.1192 45.248 96.8489 45.9838 96.8377 45.997C96.4865 46.4176 96.5297 45.9671 96.367 45.8482C96.2897 45.7907 96.0736 45.8492 95.9467 45.9037C95.8458 45.9482 95.8673 45.7587 95.7551 45.851C95.7399 45.8633 95.6215 46.2012 95.6137 46.2132C95.3808 46.5915 95.7324 45.7827 95.7723 45.6314C95.9166 45.0807 95.9917 44.7845 95.7947 45.003C95.7501 45.0527 95.2192 46.2155 95.1476 46.2719C95.0563 46.3428 95.2452 45.9242 95.146 46.0089C95.1377 46.0158 95.0348 46.2785 95.003 46.2557C94.8537 46.1533 94.7345 45.9414 94.5531 45.9101C94.5287 45.9049 94.386 46.3332 94.3474 46.3326C94.1703 46.3308 93.9881 46.2503 93.9154 45.9973C93.8977 45.9335 94.0485 45.6487 94.0776 45.5584C94.2543 45.0119 93.8511 45.7516 93.8321 45.7618C93.3799 46.0226 93.4853 45.2486 93.0396 45.4559C93.0158 45.4689 92.5077 46.2387 92.7831 45.511C92.8008 45.4625 93.0876 44.7194 92.808 45.1914C92.7904 45.2209 92.6484 45.6061 92.6078 45.5431C92.5677 45.4802 92.3542 45.6863 92.4715 45.2442C92.5078 45.1048 92.7993 44.362 92.4474 44.8995C92.4246 44.9376 91.6724 46.1747 92.0718 45.2659C92.1374 45.1162 92.6135 44.1793 92.2839 44.6191C92.2201 44.7044 92.1465 44.929 92.0354 45.0384C91.864 45.2068 91.8998 44.9113 91.6011 45.287C91.5489 45.3538 91.1571 45.9578 91.3546 45.4501C91.3857 45.3706 91.5622 45.0658 91.5537 45.0175C91.5149 44.787 91.2744 44.9282 91.2638 44.6474C91.2601 44.5487 91.5513 44.0589 91.5788 43.9007C91.6068 43.743 91.5859 43.5651 91.413 43.7671C91.2397 43.969 90.8573 44.794 90.7478 44.8168C90.7337 44.8197 90.72 44.822 90.7067 44.8236C90.2636 44.8744 90.2157 44.2625 89.9514 44.0097C89.9108 43.9707 89.7829 44.2728 89.7107 44.2347C89.4427 44.0971 88.858 44.066 89.0135 43.3378C89.1458 42.7618 89.5843 42.5614 89.5809 42.2874C89.5802 42.1577 88.9369 42.9789 88.9033 42.9948C88.5727 43.1658 88.7325 42.7103 88.5268 42.7309C88.484 42.735 88.2697 43.0998 88.2358 43.0991C88.1165 43.0988 88.1406 42.88 88.0472 42.8493C88.0045 42.8361 87.8247 43.101 87.8083 43.0561C87.7671 42.9517 87.7811 42.7899 87.8881 42.492C87.898 42.465 88.1741 42.1798 88.1308 42.1255C88.0598 42.0379 88.1335 41.7189 87.8576 41.8806C87.7752 41.9297 87.3361 42.5034 87.5763 42.0527C87.6265 41.9584 88.17 41.2853 87.6432 41.8174C87.5564 41.9075 86.8167 42.593 87.1576 42.0288C87.2473 41.8804 87.6453 41.2926 87.5438 41.3501C87.5283 41.3598 87.3073 41.6777 87.2563 41.6818C87.0805 41.6906 87.0054 41.5641 86.8321 41.5626C86.7852 41.5625 86.5736 41.9057 86.511 41.8947C86.3364 41.8628 86.2644 41.6475 86.2405 41.4476C86.2322 41.3733 86.4696 41.1556 86.4898 41.126C86.8194 40.6478 86.2889 41.2055 86.2445 41.2234C85.9766 41.3301 86.1468 40.9858 86.002 40.9686C85.9621 40.9623 85.7353 41.2513 85.709 41.2705C85.449 41.4533 85.9217 41.0064 85.9399 40.92C85.9926 40.6767 85.8818 40.5977 85.7687 40.5378C85.7268 40.5161 85.4758 40.8605 85.4414 40.8369C85.2319 40.702 85.0986 40.4731 85.1074 40.1234C85.1099 40.0574 85.3496 39.8568 85.3945 39.7985C85.7096 39.3941 85.1677 39.8057 85.1081 39.8331C84.8368 39.9633 85.0106 39.7388 84.9217 39.706C84.4829 39.5447 84.3146 38.9786 84.1832 38.5748C84.0095 38.0432 84.0215 37.5362 83.7363 37.1573C83.7186 37.1328 83.4387 37.3847 83.4198 37.366C83.1904 37.1109 83.1552 36.7185 82.9339 36.4641C82.9163 36.4424 82.66 36.6701 82.6228 36.6407C82.5445 36.5815 82.5145 36.4585 82.5653 36.3117C82.5895 36.2407 82.8442 36.1416 82.8635 36.0741C82.9089 35.917 82.884 35.8006 82.801 35.7277C82.7652 35.6968 82.5184 35.9407 82.4937 35.8857C82.3178 35.5146 82.1527 35.1439 82.3628 34.5557C82.3775 34.5151 82.8896 34.187 82.7705 34.1912C82.6254 34.271 82.4564 34.3698 82.3023 34.4576C82.0499 33.9405 82.0824 33.2849 81.9814 32.7168C81.9774 32.6926 81.7454 32.856 81.7372 32.8091C81.6878 32.5391 81.5879 32.3028 81.7633 31.9254C81.7803 31.8882 82.1687 31.7174 82.0939 31.6685C82.0803 31.6601 82.0058 31.5683 81.9193 31.5761C81.9064 31.5776 81.7347 31.6817 81.7238 31.6456C81.6629 31.4348 81.6733 31.1807 81.7397 30.917C81.7505 30.8744 81.9248 30.8362 81.9335 30.8055C81.99 30.591 81.838 30.4534 81.952 30.2249C82.0262 30.0732 82.2963 30.0004 82.5366 29.8339C82.5703 29.8105 82.5564 29.7437 82.7012 29.6778C83.0647 29.5121 83.4826 29.3671 83.8692 29.1867C83.9333 29.1569 83.8632 29.1301 83.9352 29.0992C83.9352 29.0992 83.9352 29.0992 83.9352 29.0992C83.9565 29.0901 83.99 29.0807 84.0434 29.0704C84.059 29.0677 84.1662 29.0898 84.2465 29.0719C84.3022 29.0595 84.4392 28.9796 84.5166 28.9698C84.5946 28.9598 84.4842 29.0335 84.5837 29.0296C84.6848 29.0248 84.8483 28.9367 84.9247 28.981ZM97.1094 44.5741C97.1793 44.1992 96.6985 45.5033 96.8765 45.2094C96.8857 45.1936 97.1061 44.5925 97.1094 44.5741ZM104.319 45.8323C104.328 45.4363 104.147 46.0009 104.139 46.3063C104.13 46.6075 104.317 45.9507 104.319 45.8323ZM105.171 45.6585C105.139 45.3663 104.888 46.5084 105.035 46.2823C105.043 46.2695 105.173 45.6752 105.171 45.6585ZM82.6914 30.0567C82.6986 30.0527 82.6906 30.0037 82.683 30.0058C82.5009 30.0574 82.5136 30.1571 82.6914 30.0567ZM106.017 45.5045C106.017 45.3625 105.907 45.5097 105.907 45.6875C105.908 45.829 106.018 45.6792 106.017 45.5045ZM94.7558 42.0363C94.7641 42.0159 94.7407 41.9834 94.6894 42.0968C94.5242 42.462 94.6163 42.3793 94.7558 42.0363ZM107.354 45.6843C107.157 45.6352 107.167 44.9028 107.363 45.0397C107.399 45.0627 107.241 45.2359 107.279 45.3091C107.351 45.4363 107.484 45.0352 107.537 45.2777C107.548 45.3192 107.366 45.6867 107.354 45.6852C107.354 45.6849 107.354 45.6846 107.354 45.6843ZM97.641 42.995C97.6461 42.9774 97.6074 42.9449 97.6002 42.9616C97.4255 43.3681 97.5047 43.433 97.641 42.995ZM93.4053 40.3341C93.423 40.2958 93.3471 40.2095 93.3255 40.2419C92.9016 40.8951 93.0601 41.0748 93.4053 40.3341ZM100.909 43.1074C101.063 42.7494 101.13 42.728 101.037 43.2068C100.996 43.1662 100.95 43.1465 100.909 43.1074Z" fill="#998E8B"/>
<path d="M114.311 31.6957C114.469 31.7292 114.568 31.8309 114.602 31.9323C114.613 31.9639 114.495 32.0152 114.497 32.0405C114.5 32.0903 114.592 32.0834 114.586 32.1381C114.583 32.1567 114.399 32.2474 114.4 32.2651C114.403 32.3627 114.517 32.385 114.556 32.4599C114.744 32.8341 115.004 33.1449 115.254 33.4638C115.338 33.5682 115.276 33.8273 115.479 33.8419C115.502 33.8431 115.686 33.6764 115.705 33.665C115.988 33.4877 115.587 33.8052 115.561 33.8679C115.461 34.1148 115.556 34.2254 115.732 34.2275C115.807 34.2273 116.156 33.8395 115.979 34.0692C115.967 34.0849 115.748 34.2701 115.737 34.2989C115.713 34.3644 115.8 34.3659 115.804 34.3961C115.811 34.4559 115.819 34.4589 115.854 34.4882C115.901 34.5295 115.857 34.6772 115.959 34.6688C115.982 34.6662 116.183 34.4389 116.239 34.4141C116.294 34.3893 116.326 34.4389 116.292 34.5022C116.257 34.5655 116.079 34.7359 116.043 34.7779C115.737 35.1357 116.253 34.7052 116.272 34.6963C116.601 34.5806 116.455 34.9312 116.587 35.018C116.686 35.0798 116.876 35.0421 116.959 35.1119C117.058 35.1969 117.035 35.3974 117.166 35.438C117.179 35.4424 117.415 35.1097 117.432 35.1138C117.613 35.1586 117.73 35.2639 117.72 35.5811C117.719 35.6133 117.486 35.908 117.472 35.9591C117.393 36.2619 117.135 36.9875 118.101 35.6337C118.129 35.72 118.171 35.8146 118.051 36.1313C117.972 36.3348 117.712 36.6706 117.854 36.5445C117.886 36.5163 118.067 36.1971 118.1 36.1779C118.236 36.0969 118.246 36.2364 118.411 36.1047C118.445 36.077 118.613 35.7892 118.648 35.7394C118.928 35.3355 118.568 36.0518 118.551 36.1092C118.42 36.5314 118.57 36.4147 118.648 36.4637C118.665 36.4753 118.866 36.0684 118.891 36.0649C119.018 36.0515 119.097 36.1291 119.096 36.353C119.096 36.4039 118.892 36.7406 118.882 36.7826C118.841 36.9646 119.198 36.3137 119.165 36.4744C119.159 36.5075 118.997 36.8035 118.982 36.837C118.738 37.3639 119.143 36.6451 119.157 36.6315C119.355 36.4476 119.016 37.2411 119.157 37.1724C119.174 37.1631 119.344 36.7688 119.38 36.7658C119.622 36.7439 119.755 36.9287 119.803 37.3287C119.811 37.3903 119.654 37.6786 119.639 37.716C119.409 38.303 119.779 37.5437 119.801 37.5187C119.969 37.3412 119.754 38.0208 120.211 37.1192C120.354 37.4834 120.729 37.3007 120.864 37.7136C120.899 37.8157 120.92 37.9546 120.923 38.1478C120.923 38.1593 120.766 38.5476 120.768 38.5688C120.787 38.8279 120.999 38.2118 121.342 37.4915C121.428 37.3104 121.142 38.2295 121.123 38.2973C121.05 38.5468 120.816 39.1239 120.804 39.1731C120.716 39.5608 121.42 37.627 121.48 37.6492C121.481 37.6531 121.343 38.0057 121.335 38.043C121.31 38.16 121.378 38.0247 121.349 38.153C121.282 38.4499 120.957 39.3944 121.211 38.8684C121.244 38.8001 121.626 37.6991 121.662 37.7715C121.676 37.8012 121.781 37.819 121.783 37.9002C121.785 37.9811 121.643 38.3281 121.64 38.3441C121.55 38.8383 121.455 39.0222 121.254 39.728C121.056 40.4312 121.611 38.7819 121.689 38.6037C121.767 38.4259 121.689 38.8312 121.658 38.9701C121.626 39.1091 121.532 39.3279 121.519 39.4081C121.433 39.9321 121.83 38.6037 121.944 38.3519C122.212 37.7557 121.852 38.9924 121.872 39.1315C121.877 39.1691 121.956 38.8871 121.978 38.8659C122.066 38.7859 121.976 39.1772 122.152 38.8504C122.181 38.797 122.467 38.0836 122.326 38.6311C122.306 38.71 122.196 39.0087 122.197 39.0843C122.199 39.1977 122.241 39.2843 122.31 39.1954C122.361 39.1297 122.486 38.6209 122.472 38.7873C122.465 38.8615 122.346 39.1435 122.342 39.2586C122.338 39.3735 122.417 39.3847 122.449 39.3838C122.48 39.3826 122.58 39.0006 122.59 38.976C122.649 38.835 122.758 38.6715 122.762 38.6736C123.015 38.7109 123.052 39.411 123.348 39.2762C123.371 39.2664 123.468 38.8721 123.472 38.8666C123.581 38.7237 123.242 39.745 123.191 40.1049C123.404 39.3122 123.391 39.4634 123.46 39.3906C123.494 39.355 123.566 39.0459 123.576 39.0152C123.736 38.5619 123.593 39.168 123.566 39.2919C123.465 39.7483 123.633 39.2241 123.566 39.529C123.5 39.8311 123.345 40.2634 123.392 40.2698C123.481 39.9924 123.647 39.2481 123.712 39.1394C123.96 38.731 124.025 39.3751 124.113 39.462C124.197 39.5502 124.242 39.5092 124.276 39.6252C124.337 39.8343 124.431 39.2934 124.556 39.0728C124.68 38.853 124.329 40.1376 124.269 40.4188C124.21 40.6992 124.292 40.4155 124.266 40.5712C124.241 40.7266 124.168 40.9097 124.182 40.9732C124.198 41.0363 124.395 40.5604 124.474 40.2746C124.643 39.6684 124.766 39.0172 124.78 39.2643C124.781 39.2788 124.687 39.6117 124.694 39.6502C124.754 39.9443 124.881 39.9952 124.956 40.2518C124.967 40.2875 124.866 40.65 124.871 40.6747C124.926 40.9321 125.029 40.3068 125.243 39.6421C125.023 40.5448 124.928 41.1067 125.012 41.1269C125.062 41.1398 125.142 40.7457 125.236 40.4773C125.264 40.3965 125.24 40.6727 125.287 40.4906C125.441 39.8964 125.56 39.2173 125.58 39.5085C125.58 39.5221 125.497 39.8455 125.504 39.8687C125.555 40.0193 125.701 39.4009 125.8 39.3542C125.878 39.3181 125.916 39.7281 125.981 39.8091C125.774 40.7761 125.898 40.5684 126.066 39.9165C126.111 39.9576 126.173 39.9361 126.204 40.0398C126.214 40.0752 126.147 40.3459 126.143 40.3761C126.081 40.8473 126.234 40.2195 126.249 40.1982C126.421 39.9925 126.417 40.4847 126.62 40.0592C126.627 40.0437 126.758 39.4129 126.696 39.8837C126.692 39.9158 126.598 40.1937 126.647 40.2297C126.694 40.2672 126.73 40.6236 126.86 40.3552C126.892 40.29 127.032 39.8062 126.994 40.204C126.989 40.2578 126.95 40.4314 126.939 40.5304C126.903 40.8449 127.032 40.2342 126.96 40.7608C126.888 41.2876 126.875 41.6781 127.02 41.3353C127.025 41.3252 127.132 40.8519 127.155 40.8646C127.191 40.8849 127.229 40.9935 127.268 40.9973C127.287 40.9991 127.328 40.707 127.333 40.7023C127.487 40.5687 127.529 40.8458 127.648 40.9777C127.67 41.0013 127.807 40.6427 127.804 40.9471C127.803 41.2772 127.514 42.6031 127.7 42.2882C127.776 42.1568 128.12 40.5258 128.067 41.3869C128.283 41.2095 128.369 41.6396 128.591 41.382C128.601 41.3704 128.693 40.9583 128.71 40.9683C128.736 40.9833 128.72 41.1784 128.737 41.1941C128.81 41.2645 128.911 41.1164 128.986 41.1561C129.015 41.1704 128.975 41.3577 129.01 41.3731C129.044 41.3878 129.106 41.1474 129.137 41.2731C129.16 41.3693 129.124 41.8625 129.166 41.9191C129.241 41.4425 129.273 41.456 129.353 41.3412C129.368 41.3191 129.38 41.1546 129.388 41.1359C129.422 41.0567 129.422 41.1943 129.456 41.1082C129.464 41.0876 129.488 40.9306 129.496 40.9051C129.564 40.6841 129.568 41.0489 129.569 41.1094C129.573 41.3443 129.62 41.1488 129.636 41.243C129.652 41.3357 129.592 41.4393 129.618 41.4971C129.673 41.6151 129.769 41.5983 129.84 41.612C129.869 41.6164 129.876 41.4263 129.881 41.4226C129.947 41.3851 129.981 41.5853 130.065 41.2301C129.975 42.1649 130.113 41.1456 130.173 41.347C130.177 41.3633 130.127 41.7882 130.092 41.8503C130.056 41.913 130.035 41.7759 129.984 41.8749C129.972 41.8969 129.863 42.3142 129.852 42.3415C129.769 42.5475 129.858 41.8709 129.861 41.8329C129.887 41.4271 129.761 41.8843 129.74 41.9191C129.645 42.0685 129.598 41.9692 129.52 42.0804C129.47 42.1525 129.395 42.6361 129.365 42.6259C129.264 42.5959 129.337 41.8896 129.142 42.5103C129.101 42.6435 129.037 43.2042 129.024 42.772C129.023 42.746 129.027 42.3388 128.954 42.6032C128.944 42.6368 128.919 42.8053 128.911 42.8202C128.859 42.9174 128.854 42.7853 128.803 42.8559C128.751 42.9266 128.686 43.0339 128.648 42.9814C128.625 42.9505 128.641 42.6238 128.641 42.5428C128.64 42.3095 128.539 42.6999 128.561 42.4134C128.585 42.1226 128.699 41.6852 128.67 41.4909C128.592 41.965 128.509 42.4522 128.429 42.9307C128.295 42.9322 128.189 42.7863 128.051 42.8191C128.034 42.8239 128.006 43.0942 127.986 43.107C127.904 43.1611 127.865 42.97 127.771 43.0568C127.698 43.125 127.577 43.4348 127.497 43.522C127.563 42.9133 127.43 43.1282 127.37 43.0778C127.349 43.0599 127.38 42.8911 127.373 42.8368C127.344 42.6352 127.275 43.1954 127.242 43.2856C127.096 43.6743 127.318 42.3917 127.225 42.4204C127.22 42.4205 127.037 43.1178 127.021 43.1631C126.919 43.4512 127.057 42.9204 127.034 42.87C126.994 42.778 126.986 42.6078 126.88 42.8182C126.848 42.8797 126.716 43.331 126.74 42.9848C126.743 42.9393 126.791 42.7003 126.789 42.6864C126.758 42.4517 126.615 43.2066 126.522 43.4677C126.429 43.7295 126.461 43.2067 126.477 43.0529C126.517 42.6572 126.536 42.8834 126.545 42.8445C126.655 42.3838 126.592 42.4622 126.563 42.4218C126.702 41.6651 126.644 41.7046 126.533 42.3828C126.521 42.4567 126.562 42.3869 126.563 42.4218C126.39 43.1624 126.312 43.2669 126.386 42.5622C126.421 42.2312 126.523 41.8471 126.41 41.9813C126.358 42.0422 126.269 42.5773 126.205 42.7227C126.059 43.0569 126.055 42.5517 125.958 42.6275C125.922 42.6559 125.891 42.9571 125.864 42.9873C125.794 43.0693 125.791 42.8414 125.71 42.9568C125.703 42.9678 125.65 43.2866 125.632 43.2908C125.489 43.3293 125.416 43.1215 125.28 43.1117C125.214 43.107 125.056 43.2872 124.995 43.2489C124.888 43.1852 124.858 42.685 124.727 42.7961C124.643 42.8683 124.58 43.2125 124.498 43.4453C124.338 43.8986 124.424 43.0778 124.441 42.9482C124.441 42.9439 124.517 42.8668 124.527 42.6865C124.595 42.3141 124.442 42.9465 124.441 42.9482C124.451 42.8657 124.355 42.7767 124.317 42.8414C124.296 42.8768 124.226 43.2089 124.217 43.2212C123.994 43.5076 123.816 43.5872 123.701 43.4166C123.7 43.4095 123.796 43.0305 123.793 43.0185C123.747 42.8407 123.571 43.299 123.426 43.5712C123.28 43.8427 123.241 43.746 123.364 43.0779C123.286 43.155 123.281 42.8513 123.281 42.6653C123.282 42.4793 123.08 43.2366 123.072 43.2512C122.819 43.7166 122.858 43.2734 122.748 43.1861C122.694 43.1434 122.535 43.2352 122.443 43.3092C122.369 43.369 122.387 43.1822 122.304 43.2902C122.293 43.3047 122.204 43.6513 122.198 43.6643C122.026 44.0696 122.289 43.2282 122.32 43.0753C122.431 42.5189 122.49 42.2202 122.348 42.4658C122.315 42.5217 121.921 43.7363 121.869 43.8035C121.804 43.8881 121.944 43.4512 121.873 43.5506C121.867 43.5588 121.79 43.8301 121.768 43.814C121.666 43.743 121.582 43.5601 121.448 43.5623C121.431 43.5617 121.323 43.9996 121.295 44.0058C121.162 44.035 121.038 43.9937 120.99 43.7654C120.979 43.7079 121.091 43.4063 121.113 43.3143C121.248 42.7574 120.948 43.5429 120.935 43.5564C120.614 43.8955 120.683 43.1303 120.363 43.4193C120.346 43.4365 119.969 44.2723 120.178 43.5243C120.192 43.4745 120.409 42.7094 120.201 43.2155C120.188 43.2472 120.08 43.6424 120.051 43.591C120.024 43.5396 119.867 43.7797 119.958 43.3361C119.986 43.1961 120.209 42.4316 119.944 43.0141C119.927 43.055 119.361 44.3845 119.662 43.4391C119.711 43.2835 120.069 42.2952 119.824 42.7819C119.776 42.8763 119.72 43.1044 119.638 43.2316C119.511 43.4277 119.541 43.1409 119.318 43.5606C119.279 43.635 118.986 44.2902 119.136 43.7683C119.16 43.6866 119.293 43.3605 119.287 43.3169C119.262 43.1083 119.085 43.295 119.08 43.0334C119.077 42.941 119.297 42.4157 119.317 42.2605C119.338 42.1054 119.324 41.9431 119.195 42.1719C119.065 42.4008 118.775 43.2613 118.693 43.3077C118.683 43.3136 118.673 43.3189 118.663 43.3235C118.334 43.4721 118.308 42.9142 118.107 42.7408C118.077 42.7144 117.979 43.0257 117.925 43.0078C117.726 42.9444 117.284 43.06 117.404 42.3508C117.507 41.7877 117.84 41.4924 117.839 41.2415C117.839 41.1227 117.347 42.0406 117.321 42.0637C117.069 42.305 117.192 41.847 117.035 41.9196C117.002 41.9344 116.837 42.3233 116.811 42.3315C116.72 42.3625 116.737 42.1562 116.665 42.1527C116.632 42.1519 116.493 42.4403 116.481 42.4037C116.449 42.3194 116.459 42.1685 116.542 41.8696C116.549 41.8426 116.763 41.5103 116.73 41.4726C116.675 41.412 116.732 41.1037 116.518 41.3244C116.454 41.3909 116.114 42.0283 116.3 41.5563C116.339 41.4576 116.762 40.7032 116.351 41.3258C116.284 41.4307 115.705 42.2487 115.971 41.6479C116.04 41.4898 116.351 40.8526 116.272 40.9321C116.26 40.945 116.087 41.2912 116.047 41.3088C115.908 41.3648 115.848 41.2721 115.711 41.3188C115.674 41.3317 115.508 41.6971 115.459 41.7048C115.323 41.726 115.26 41.5516 115.239 41.3805C115.231 41.3165 115.42 41.0566 115.436 41.0246C115.696 40.5071 115.275 41.1514 115.24 41.1797C115.026 41.3494 115.159 40.9959 115.042 41.0218C115.011 41.0278 114.83 41.3473 114.809 41.3718C114.602 41.6074 114.978 41.0782 114.993 40.9971C115.033 40.7669 114.941 40.728 114.848 40.7071C114.814 40.6998 114.614 41.0745 114.586 41.0633C114.411 41.0023 114.302 40.8416 114.301 40.5315C114.302 40.4729 114.497 40.2293 114.533 40.1656C114.787 39.7224 114.346 40.2365 114.296 40.2772C114.074 40.4679 114.214 40.2225 114.139 40.2194C113.776 40.2066 113.615 39.7588 113.497 39.4515C113.337 39.0425 113.339 38.6095 113.085 38.3691C113.069 38.3533 112.83 38.6438 112.813 38.6332C112.608 38.4804 112.567 38.1581 112.367 38.0048C112.351 37.9911 112.128 38.2508 112.095 38.2358C112.023 38.2064 111.993 38.1105 112.035 37.974C112.056 37.9082 112.28 37.7582 112.296 37.6967C112.334 37.5537 112.31 37.4638 112.235 37.4254C112.203 37.4092 111.986 37.6763 111.963 37.6371C111.797 37.3717 111.641 37.1053 111.825 36.571C111.838 36.5341 112.3 36.1391 112.193 36.1727C112.062 36.2738 111.909 36.3963 111.77 36.5061C111.535 36.1452 111.563 35.6081 111.475 35.1829C111.472 35.1645 111.257 35.3475 111.249 35.312C111.205 35.1082 111.115 34.9442 111.282 34.6096C111.299 34.5769 111.662 34.3574 111.593 34.3363C111.581 34.3328 111.514 34.2784 111.433 34.3036C111.421 34.3076 111.26 34.4261 111.25 34.4005C111.197 34.2505 111.212 34.0511 111.28 33.8353C111.291 33.8004 111.455 33.7338 111.463 33.7086C111.522 33.5333 111.383 33.4607 111.497 33.2642C111.571 33.1342 111.825 33.0224 112.055 32.8469C112.088 32.8223 112.077 32.7755 112.215 32.6956C112.56 32.495 112.955 32.2977 113.323 32.0812C113.383 32.0454 113.32 32.0413 113.388 32.003C113.388 32.003 113.388 32.003 113.388 32.003C113.408 31.9917 113.44 31.9775 113.49 31.9583C113.504 31.9528 113.603 31.9452 113.678 31.9143C113.731 31.8929 113.862 31.8046 113.934 31.7802C114.007 31.7555 113.901 31.8334 113.993 31.8081C114.087 31.7818 114.243 31.6815 114.311 31.6957ZM123.289 41.8286C123.345 41.4542 122.985 42.7965 123.115 42.4823C123.121 42.4656 123.287 41.8469 123.289 41.8286ZM128.299 42.1201C128.31 41.7278 128.179 42.3043 128.167 42.6065C128.156 42.9048 128.296 42.2372 128.299 42.1201ZM128.893 41.8645C128.875 41.5787 128.684 42.7323 128.789 42.4946C128.795 42.4811 128.894 41.8808 128.893 41.8645ZM112.192 32.9798C112.199 32.9752 112.193 32.9404 112.186 32.9436C112.014 33.0214 112.023 33.0934 112.192 32.9798ZM129.478 41.6327C129.479 41.4922 129.402 41.6479 129.399 41.8239C129.397 41.964 129.476 41.8057 129.478 41.6327ZM121.648 39.8166C121.654 39.7955 121.638 39.7694 121.6 39.8877C121.475 40.2687 121.543 40.1714 121.648 39.8166ZM130.397 41.6948C130.262 41.6625 130.279 40.9357 130.413 41.0549C130.437 41.0747 130.326 41.2597 130.351 41.329C130.398 41.4492 130.496 41.0403 130.529 41.2764C130.535 41.3167 130.405 41.6963 130.397 41.6958C130.397 41.6955 130.397 41.6951 130.397 41.6948ZM123.69 40.2117C123.694 40.1938 123.668 40.1688 123.663 40.1863C123.533 40.6089 123.587 40.6583 123.69 40.2117ZM120.698 38.4992C120.711 38.4592 120.657 38.396 120.641 38.4313C120.323 39.1405 120.435 39.2721 120.698 38.4992ZM125.977 39.8353C126.091 39.4642 126.138 39.4345 126.066 39.916C126.038 39.8814 126.005 39.8682 125.977 39.8353Z" fill="#998E8B"/>
<path d="M2.50004 31.6368C33.0974 -5.49991 53 1 76 8.63683C84.5 51.6366 48.5974 50.0003 33.0974 48.5003C37.0974 48.5003 39.6667 42.4704 40.5 39.6371C37 42.8037 26.7 47.8371 13.5 42.6371C16.7 43.4371 21.8334 34.9702 24 30.6368C22.3334 33.1368 15.7 37.6368 2.50004 31.6368Z" fill="#C1B6B0" stroke="black" stroke-width="5" stroke-linejoin="round"/>
<path d="M67.8565 28.981C67.68 29.0842 67.5619 29.2657 67.5157 29.4236C67.5009 29.4729 67.6281 29.5021 67.6236 29.5389C67.6154 29.6111 67.5145 29.6356 67.5164 29.7112C67.5178 29.7367 67.715 29.7967 67.713 29.8219C67.7023 29.9607 67.5728 30.036 67.5226 30.1575C67.282 30.7601 66.9611 31.3042 66.6427 31.8614C66.5369 32.0429 66.5876 32.3733 66.3495 32.4849C66.3214 32.4975 66.1174 32.3558 66.0966 32.3488C65.7751 32.2402 66.2247 32.4852 66.25 32.5588C66.3491 32.8491 66.2298 33.04 66.0193 33.1264C65.929 33.1628 65.5396 32.8108 65.734 33.0342C65.7471 33.0496 65.9978 33.191 66.0085 33.2245C66.0326 33.3004 65.9275 33.3445 65.9207 33.3866C65.9089 33.469 65.8984 33.4769 65.8541 33.5325C65.7953 33.6097 65.84 33.7812 65.7159 33.8204C65.6885 33.828 65.4585 33.6288 65.3921 33.6239C65.3257 33.6191 65.2832 33.7007 65.321 33.7665C65.3588 33.8322 65.5655 33.9665 65.607 34.0036C65.9589 34.3181 65.3557 34.0112 65.3326 34.0097C64.9345 34.024 65.0902 34.4062 64.9236 34.5792C64.7963 34.7075 64.5602 34.755 64.4517 34.8836C64.323 35.0382 64.3397 35.2783 64.1719 35.3913C64.1545 35.4033 63.8698 35.1108 63.8479 35.1243C63.6147 35.2685 63.4527 35.461 63.4532 35.8357C63.4535 35.8737 63.7428 36.115 63.7587 36.1694C63.8505 36.4926 64.1622 37.228 62.9541 36.0823C62.9135 36.1979 62.8552 36.329 63.003 36.643C63.0978 36.8457 63.4278 37.1173 63.2451 37.0363C63.2046 37.018 62.9773 36.729 62.9353 36.7217C62.7588 36.6902 62.7419 36.8565 62.5288 36.7786C62.4849 36.762 62.2726 36.505 62.2285 36.4632C61.8707 36.1235 62.3226 36.7887 62.3442 36.8467C62.5064 37.2727 62.3078 37.208 62.204 37.2975C62.1799 37.3186 61.925 36.9421 61.8918 36.9491C61.7236 36.9898 61.6153 37.1128 61.6098 37.3655C61.6091 37.4227 61.8733 37.7158 61.885 37.7594C61.9328 37.9488 61.4738 37.3652 61.5128 37.5328C61.5205 37.5675 61.729 37.8325 61.7489 37.8637C62.0612 38.3541 61.5384 37.7155 61.519 37.7065C61.2585 37.583 61.6925 38.3314 61.5055 38.3117C61.4828 38.3082 61.2639 37.9379 61.2158 37.9491C60.892 38.023 60.7036 38.283 60.6294 38.7405C60.6177 38.811 60.8242 39.0674 60.8436 39.1028C61.1423 39.6591 60.6574 38.9671 60.628 38.9478C60.4038 38.8173 60.6817 39.4796 60.0787 38.666C59.8712 39.1192 59.3644 39.0535 59.1642 39.5466C59.114 39.6685 59.08 39.8257 59.0763 40.0313C59.0755 40.0437 59.2838 40.4072 59.2812 40.4304C59.2504 40.7136 58.9702 40.1251 58.5098 39.469C58.395 39.3039 58.7689 40.1925 58.7942 40.2586C58.8903 40.501 59.2013 41.0408 59.2165 41.0895C59.3306 41.4745 58.3969 39.6405 58.3125 39.684C58.3114 39.6885 58.4952 40.0197 58.5051 40.0569C58.5363 40.1739 58.4455 40.0515 58.4823 40.1792C58.5684 40.4741 58.9982 41.3758 58.6563 40.8974C58.6125 40.8351 58.1056 39.7855 58.0533 39.8742C58.0338 39.91 57.8925 39.9595 57.8878 40.0462C57.8832 40.1328 58.0728 40.4567 58.0773 40.4726C58.1899 40.9696 58.3185 41.1348 58.5824 41.8211C58.843 42.5052 58.1057 40.9288 58.0006 40.7641C57.8959 40.5999 57.9941 41.0057 58.0349 41.1431C58.076 41.2805 58.2017 41.4835 58.2186 41.5643C58.3252 42.0931 57.801 40.8084 57.6469 40.5769C57.2853 40.028 57.7597 41.2268 57.7275 41.3799C57.7192 41.4212 57.6159 41.1469 57.5847 41.1314C57.4646 41.0726 57.5844 41.4574 57.3472 41.1637C57.308 41.1158 56.9269 40.4463 57.1106 40.9822C57.137 41.0595 57.2843 41.3419 57.2802 41.422C57.2744 41.5421 57.2122 41.6458 57.1162 41.5725C57.0455 41.5182 56.8827 41.0189 56.8981 41.19C56.9048 41.2663 57.0671 41.5283 57.0692 41.6482C57.0714 41.7681 56.9585 41.8027 56.9133 41.8108C56.8681 41.8187 56.7367 41.4459 56.723 41.4229C56.6437 41.2915 56.493 41.1508 56.4865 41.1543C56.1375 41.26 56.0675 42.0014 55.6427 41.9403C55.6098 41.936 55.4824 41.5504 55.4759 41.5459C55.3243 41.4254 55.7806 42.4016 55.8453 42.7627C55.5617 41.9923 55.5778 42.1459 55.4828 42.0872C55.4368 42.0583 55.3413 41.7554 55.3271 41.7261C55.1128 41.2947 55.301 41.8885 55.3372 42.0104C55.4709 42.459 55.245 41.9562 55.3334 42.2559C55.4203 42.5532 55.6287 42.964 55.5636 42.9817C55.4448 42.7156 55.2251 41.9844 55.136 41.8874C54.8031 41.5218 54.679 42.211 54.5505 42.322C54.4257 42.4342 54.3669 42.4005 54.3171 42.528C54.2276 42.7573 54.1053 42.2204 53.9343 42.0205C53.7636 41.8214 54.2341 43.0679 54.3123 43.3446C54.3902 43.6206 54.2812 43.3461 54.3143 43.5008C54.3473 43.6553 54.4464 43.8281 54.4247 43.8967C54.4025 43.9647 54.1315 43.5185 54.0246 43.2417C53.7974 42.6545 53.638 42.01 53.609 42.2689C53.6074 42.2841 53.7348 42.6061 53.723 42.6477C53.6256 42.9657 53.4349 43.0483 53.3273 43.3264C53.3121 43.3652 53.4471 43.7167 53.4394 43.7431C53.3579 44.0187 53.2232 43.3979 52.9347 42.7592C53.2284 43.6407 53.3507 44.1983 53.2324 44.2359C53.1617 44.2592 53.0565 43.871 52.9287 43.6146C52.8904 43.5374 52.9201 43.8156 52.8566 43.6384C52.6493 43.0601 52.4969 42.3867 52.4587 42.6906C52.4572 42.7048 52.5699 43.0195 52.5577 43.0451C52.4787 43.2109 52.2833 42.6062 52.1376 42.5794C52.0212 42.5596 51.9607 42.9862 51.8665 43.0815C52.1407 44.0316 51.9699 43.8425 51.7443 43.2073C51.6798 43.2578 51.5916 43.2474 51.546 43.3591C51.5301 43.3972 51.6207 43.6614 51.6258 43.6915C51.7045 44.1616 51.4998 43.5481 51.4776 43.5293C51.2423 43.3495 51.2249 43.8549 50.9385 43.4584C50.9283 43.4438 50.753 42.8238 50.8304 43.2935C50.8358 43.3254 50.9638 43.5924 50.8942 43.6377C50.8254 43.6844 50.7664 44.0542 50.5867 43.8031C50.543 43.7421 50.3533 43.2731 50.3989 43.672C50.4052 43.7259 50.4568 43.8962 50.4711 43.9951C50.5158 44.3094 50.3442 43.7092 50.4356 44.2335C50.527 44.7581 50.5378 45.1536 50.3377 44.8288C50.3315 44.8192 50.188 44.3553 50.1551 44.3721C50.1025 44.3988 50.0467 44.5155 49.987 44.5266C49.9584 44.5319 49.9065 44.2412 49.9003 44.2371C49.6723 44.1289 49.605 44.4178 49.4324 44.5707C49.4004 44.5982 49.2106 44.2554 49.208 44.5643C49.2036 44.8995 49.5898 46.2017 49.3302 45.9106C49.2235 45.7889 48.7638 44.1853 48.8208 45.0517C48.5191 44.9032 48.3657 45.3567 48.0559 45.1266C48.0418 45.1163 47.9185 44.7116 47.8935 44.7242C47.8564 44.7431 47.875 44.9387 47.8493 44.9571C47.7426 45.0388 47.6004 44.903 47.4907 44.9538C47.4488 44.9723 47.5026 45.1564 47.452 45.1769C47.4013 45.1966 47.3171 44.9618 47.2695 45.0934C47.2338 45.194 47.2767 45.6883 47.2137 45.7515C47.1164 45.279 47.0685 45.2972 46.9558 45.1917C46.9342 45.1714 46.9205 45.0065 46.9086 44.9887C46.8599 44.9134 46.856 45.0529 46.8075 44.9705C46.7958 44.9508 46.7649 44.7951 46.7536 44.7704C46.6595 44.5559 46.6458 44.9256 46.6427 44.987C46.632 45.2252 46.5682 45.0337 46.5432 45.131C46.5179 45.2269 46.6021 45.3239 46.5628 45.3858C46.4808 45.5124 46.3424 45.5078 46.2378 45.531C46.1958 45.5391 46.1896 45.3478 46.1827 45.3446C46.0876 45.3153 46.0346 45.5219 45.9201 45.1735C46.0298 46.1072 45.8512 45.0942 45.7608 45.3052C45.7537 45.3222 45.8178 45.7454 45.8679 45.8037C45.9181 45.8626 45.9517 45.7214 46.0234 45.815C46.0401 45.8358 46.1896 46.2438 46.2047 46.2701C46.3209 46.4679 46.2063 45.795 46.2033 45.7569C46.1742 45.3499 46.3473 45.7961 46.3772 45.8286C46.5115 45.9674 46.5827 45.8608 46.6921 45.9631C46.7636 46.0294 46.8621 46.5088 46.9058 46.4946C47.0514 46.451 46.9658 45.745 47.2356 46.3467C47.2933 46.476 47.3728 47.0351 47.4008 46.5957C47.4029 46.5693 47.4056 46.1575 47.5067 46.4152C47.5194 46.4478 47.553 46.6149 47.564 46.629C47.6373 46.7202 47.6466 46.5859 47.7192 46.6502C47.7919 46.7147 47.8841 46.8143 47.9398 46.7558C47.9737 46.7212 47.9576 46.3924 47.9598 46.3103C47.9652 46.0739 48.1036 46.4551 48.0772 46.1679C48.0497 45.8765 47.8941 45.4494 47.9399 45.2483C48.0422 45.7177 48.1515 46.1998 48.2569 46.6734C48.4519 46.6552 48.6009 46.4934 48.8098 46.5037C48.8354 46.5058 48.869 46.7762 48.8983 46.7859C49.0218 46.8272 49.0771 46.6284 49.2111 46.7021C49.3151 46.7602 49.4821 47.0563 49.595 47.1326C49.514 46.5244 49.6991 46.7222 49.7866 46.6615C49.8171 46.64 49.7757 46.4733 49.7877 46.417C49.8333 46.2075 49.9201 46.766 49.9665 46.8523C50.1667 47.2244 49.876 45.9557 50.0087 45.9699C50.0152 45.9694 50.2628 46.649 50.2866 46.6921C50.4306 46.9677 50.2413 46.4508 50.2762 46.3955C50.3399 46.2944 50.3576 46.1192 50.5083 46.3151C50.5522 46.3724 50.7325 46.8098 50.7043 46.4615C50.7006 46.4158 50.6379 46.1803 50.6404 46.1658C50.6901 45.9217 50.879 46.6664 51.0059 46.9167C51.1333 47.1678 51.0985 46.6406 51.0788 46.4865C51.0298 46.0902 50.9978 46.324 50.9852 46.2859C50.838 45.8352 50.9263 45.9044 50.9683 45.8583C50.7854 45.1109 50.8673 45.1413 51.0125 45.8133C51.0282 45.8865 50.97 45.8226 50.9683 45.8583C51.2004 46.5833 51.3097 46.6765 51.2182 45.9708C51.1749 45.6395 51.0378 45.2656 51.1963 45.3827C51.2682 45.4358 51.3845 45.966 51.4723 46.1031C51.6712 46.419 51.6979 45.9001 51.8383 45.9589C51.89 45.981 51.927 46.2833 51.9654 46.309C52.0679 46.379 52.0776 46.1454 52.1892 46.2487C52.1994 46.2585 52.2677 46.5747 52.2941 46.5755C52.4956 46.5889 52.6034 46.3629 52.7964 46.3272C52.8907 46.3097 53.1058 46.4654 53.1995 46.4123C53.3581 46.3248 53.4242 45.802 53.6039 45.8906C53.7215 45.9478 53.8034 46.2883 53.9148 46.5106C54.1318 46.9434 54.0253 46.1187 54.0038 45.9891C54.003 45.9848 53.8975 45.9212 53.8865 45.7382C53.7984 45.3697 54.0023 45.9876 54.0038 45.9891C53.9912 45.9065 54.1271 45.7956 54.1794 45.8542C54.2079 45.8863 54.3008 46.2128 54.3138 46.2236C54.6184 46.4729 54.8831 46.5118 55.0549 46.3091C55.0566 46.3015 54.9279 45.9321 54.9334 45.9189C55.0067 45.724 55.2401 46.1593 55.4395 46.4077C55.6385 46.6557 55.6943 46.5474 55.5328 45.8859C55.6402 45.9481 55.6516 45.634 55.6577 45.4407C55.6621 45.248 55.9324 45.9838 55.9436 45.997C56.2948 46.4176 56.2516 45.9671 56.4143 45.8482C56.4916 45.7907 56.7077 45.8492 56.8345 45.9037C56.9354 45.9482 56.914 45.7587 57.0262 45.851C57.0413 45.8633 57.1598 46.2012 57.1676 46.2132C57.4004 46.5915 57.0489 45.7827 57.009 45.6314C56.8646 45.0807 56.7896 44.7845 56.9865 45.003C57.0311 45.0527 57.5621 46.2155 57.6337 46.2719C57.7249 46.3428 57.536 45.9242 57.6352 46.0089C57.6436 46.0158 57.7464 46.2785 57.7783 46.2557C57.9276 46.1533 58.0467 45.9414 58.2281 45.9101C58.2526 45.9049 58.3952 46.3332 58.4338 46.3326C58.6109 46.3308 58.7932 46.2503 58.8659 45.9973C58.8835 45.9335 58.7327 45.6487 58.7036 45.5584C58.527 45.0119 58.9302 45.7516 58.9492 45.7618C59.4014 46.0226 59.2959 45.2486 59.7416 45.4559C59.7655 45.4689 60.2735 46.2387 59.9982 45.511C59.9804 45.4625 59.6937 44.7194 59.9732 45.1914C59.9908 45.2209 60.1328 45.6061 60.1735 45.5431C60.2136 45.4802 60.427 45.6863 60.3097 45.2442C60.2735 45.1048 59.9819 44.362 60.3338 44.8995C60.3566 44.9376 61.1089 46.1747 60.7094 45.2659C60.6438 45.1162 60.1677 44.1793 60.4973 44.6191C60.5612 44.7044 60.6348 44.929 60.7458 45.0384C60.9173 45.2068 60.8815 44.9113 61.1801 45.287C61.2324 45.3538 61.6242 45.9578 61.4267 45.4501C61.3956 45.3706 61.219 45.0658 61.2275 45.0175C61.2664 44.787 61.5068 44.9282 61.5174 44.6474C61.5212 44.5487 61.2299 44.0589 61.2025 43.9007C61.1745 43.743 61.1954 43.5651 61.3683 43.7671C61.5415 43.969 61.924 44.794 62.0335 44.8168C62.0475 44.8197 62.0612 44.822 62.0746 44.8236C62.5176 44.8744 62.5655 44.2625 62.8299 44.0097C62.8705 43.9707 62.9983 44.2728 63.0705 44.2347C63.3385 44.0971 63.9232 44.066 63.7677 43.3378C63.6355 42.7618 63.197 42.5614 63.2004 42.2874C63.201 42.1577 63.8444 42.9789 63.8779 42.9948C64.2086 43.1658 64.0488 42.7103 64.2545 42.7309C64.2972 42.735 64.5115 43.0998 64.5455 43.0991C64.6647 43.0988 64.6407 42.88 64.7341 42.8493C64.7767 42.8361 64.9566 43.101 64.973 43.0561C65.0142 42.9517 65.0001 42.7899 64.8932 42.492C64.8833 42.465 64.6072 42.1798 64.6504 42.1255C64.7214 42.0379 64.6477 41.7189 64.9236 41.8806C65.006 41.9297 65.4451 42.5034 65.2049 42.0527C65.1548 41.9584 64.6113 41.2853 65.138 41.8174C65.2248 41.9075 65.9646 42.593 65.6236 42.0288C65.534 41.8804 65.1359 41.2926 65.2374 41.3501C65.2529 41.3598 65.474 41.6777 65.525 41.6818C65.7007 41.6906 65.7759 41.5641 65.9491 41.5626C65.996 41.5625 66.2076 41.9057 66.2702 41.8947C66.4448 41.8628 66.5169 41.6475 66.5407 41.4476C66.5491 41.3733 66.3116 41.1556 66.2915 41.126C65.9619 40.6478 66.4923 41.2055 66.5367 41.2234C66.8047 41.3301 66.6344 40.9858 66.7792 40.9686C66.8191 40.9623 67.046 41.2513 67.0723 41.2705C67.3322 41.4533 66.8595 41.0064 66.8414 40.92C66.7887 40.6767 66.8994 40.5977 67.0125 40.5378C67.0544 40.5161 67.3054 40.8605 67.3399 40.8369C67.5494 40.702 67.6826 40.4731 67.6738 40.1234C67.6713 40.0574 67.4317 39.8568 67.3868 39.7985C67.0716 39.3941 67.6136 39.8057 67.6732 39.8331C67.9444 39.9633 67.7706 39.7388 67.8595 39.706C68.2983 39.5447 68.4667 38.9786 68.5981 38.5748C68.7718 38.0432 68.7598 37.5362 69.045 37.1573C69.0626 37.1328 69.3425 37.3847 69.3614 37.366C69.5909 37.1109 69.6261 36.7185 69.8473 36.4641C69.865 36.4424 70.1212 36.6701 70.1585 36.6407C70.2367 36.5815 70.2668 36.4585 70.2159 36.3117C70.1918 36.2407 69.9371 36.1416 69.9177 36.0741C69.8724 35.917 69.8972 35.8006 69.9803 35.7277C70.016 35.6968 70.2628 35.9407 70.2876 35.8857C70.4634 35.5146 70.6286 35.1439 70.4184 34.5557C70.4037 34.5151 69.8916 34.187 70.0107 34.1912C70.1559 34.271 70.3248 34.3698 70.479 34.4576C70.7313 33.9405 70.6988 33.2849 70.7999 32.7168C70.8039 32.6926 71.0358 32.856 71.0441 32.8091C71.0934 32.5391 71.1933 32.3028 71.0179 31.9254C71.001 31.8882 70.6126 31.7174 70.6873 31.6685C70.7009 31.6601 70.7755 31.5683 70.862 31.5761C70.8749 31.5776 71.0465 31.6817 71.0575 31.6456C71.1183 31.4348 71.1079 31.1807 71.0416 30.917C71.0307 30.8744 70.8564 30.8362 70.8477 30.8055C70.7913 30.591 70.9432 30.4534 70.8293 30.2249C70.755 30.0732 70.4849 30.0004 70.2446 29.8339C70.211 29.8105 70.2249 29.7437 70.08 29.6778C69.7165 29.5121 69.2987 29.3671 68.9121 29.1867C68.848 29.1569 68.918 29.1301 68.8461 29.0992C68.846 29.0992 68.846 29.0992 68.846 29.0992C68.8248 29.0901 68.7913 29.0807 68.7379 29.0704C68.7222 29.0677 68.6151 29.0898 68.5347 29.0719C68.4791 29.0595 68.342 28.9796 68.2646 28.9698C68.1867 28.9598 68.297 29.0335 68.1976 29.0296C68.0964 29.0248 67.9329 28.9367 67.8565 28.981ZM55.6719 44.5741C55.602 44.1992 56.0828 45.5033 55.9048 45.2094C55.8956 45.1936 55.6751 44.5925 55.6719 44.5741ZM48.4625 45.8323C48.4532 45.4363 48.634 46.0009 48.6425 46.3063C48.6514 46.6075 48.4644 45.9507 48.4625 45.8323ZM47.6105 45.6585C47.6427 45.3663 47.8933 46.5084 47.7467 46.2823C47.7382 46.2695 47.6085 45.6752 47.6105 45.6585ZM70.0898 30.0567C70.0827 30.0527 70.0906 30.0037 70.0982 30.0058C70.2804 30.0574 70.2677 30.1571 70.0898 30.0567ZM46.7639 45.5045C46.7644 45.3625 46.8739 45.5097 46.8738 45.6875C46.8733 45.829 46.7628 45.6792 46.7639 45.5045ZM58.0254 42.0363C58.0171 42.0159 58.0405 41.9834 58.0918 42.0968C58.257 42.462 58.1649 42.3793 58.0254 42.0363ZM45.4271 45.6843C45.6245 45.6352 45.6147 44.9028 45.418 45.0397C45.3819 45.0627 45.5398 45.2359 45.5018 45.3091C45.4306 45.4363 45.2969 45.0352 45.2438 45.2777C45.2336 45.3192 45.4157 45.6867 45.4276 45.6852C45.4275 45.6849 45.4273 45.6846 45.4271 45.6843ZM55.1403 42.995C55.1352 42.9774 55.1738 42.9449 55.1811 42.9616C55.3558 43.3681 55.2766 43.433 55.1403 42.995ZM59.3759 40.3341C59.3582 40.2958 59.4341 40.2095 59.4558 40.2419C59.8796 40.8951 59.7212 41.0748 59.3759 40.3341ZM51.872 43.1074C51.7179 42.7494 51.6508 42.728 51.7443 43.2068C51.7848 43.1662 51.8313 43.1465 51.872 43.1074Z" fill="#998E8B"/>
<path d="M36.4699 30.6957C36.312 30.7292 36.2129 30.8309 36.1793 30.9323C36.1683 30.9639 36.2867 31.0152 36.2845 31.0405C36.2809 31.0903 36.1896 31.0834 36.1954 31.1381C36.1981 31.1567 36.3819 31.2474 36.3813 31.2651C36.3786 31.3627 36.2643 31.385 36.225 31.4599C36.0377 31.8341 35.7774 32.1449 35.5271 32.4638C35.443 32.5682 35.5048 32.8273 35.3027 32.8419C35.2788 32.8431 35.0951 32.6764 35.0767 32.665C34.7932 32.4877 35.1945 32.8052 35.2201 32.8679C35.3204 33.1148 35.2252 33.2254 35.0489 33.2275C34.9738 33.2273 34.6256 32.8395 34.802 33.0692C34.8138 33.0849 35.0337 33.2701 35.0444 33.2989C35.0683 33.3644 34.9809 33.3659 34.977 33.3961C34.9706 33.4559 34.9619 33.4589 34.9268 33.4882C34.8803 33.5295 34.9244 33.6772 34.8219 33.6688C34.7993 33.6662 34.5981 33.4389 34.5424 33.4141C34.4868 33.3893 34.4553 33.4389 34.4896 33.5022C34.524 33.5655 34.7018 33.7359 34.7379 33.7779C35.0438 34.1357 34.5283 33.7052 34.5094 33.6963C34.1802 33.5806 34.3258 33.9312 34.1942 34.018C34.0952 34.0798 33.9057 34.0421 33.8226 34.1119C33.7233 34.1969 33.7467 34.3974 33.6154 34.438C33.6019 34.4424 33.3661 34.1097 33.3492 34.1138C33.1678 34.1586 33.0513 34.2639 33.0609 34.5811C33.0621 34.6133 33.2954 34.908 33.3091 34.9591C33.3881 35.2619 33.6465 35.9875 32.6802 34.6337C32.6518 34.72 32.6101 34.8146 32.7307 35.1313C32.8091 35.3348 33.069 35.6706 32.9271 35.5445C32.8954 35.5163 32.7139 35.1971 32.6813 35.1779C32.5448 35.0969 32.5354 35.2364 32.3703 35.1047C32.3363 35.077 32.1684 34.7892 32.1337 34.7394C31.853 34.3355 32.2129 35.0518 32.2304 35.1092C32.3616 35.5314 32.2112 35.4147 32.1337 35.4637C32.1158 35.4753 31.9149 35.0684 31.8899 35.0649C31.7636 35.0515 31.6847 35.1291 31.6848 35.353C31.6854 35.4039 31.8897 35.7406 31.8996 35.7826C31.9403 35.9646 31.5832 35.3137 31.6161 35.4744C31.6225 35.5075 31.7841 35.8035 31.7997 35.837C32.0431 36.3639 31.6387 35.6451 31.6241 35.6315C31.4267 35.4476 31.765 36.2411 31.6239 36.1724C31.6069 36.1631 31.4369 35.7688 31.4011 35.7658C31.1597 35.7439 31.0267 35.9287 30.9783 36.3287C30.9707 36.3903 31.1276 36.6786 31.1425 36.716C31.3721 37.303 31.0024 36.5437 30.9798 36.5187C30.8119 36.3412 31.0277 37.0208 30.5707 36.1192C30.4269 36.4834 30.0519 36.3007 29.9168 36.7136C29.8824 36.8157 29.8611 36.9546 29.8583 37.1478C29.8578 37.1593 30.015 37.5476 30.0131 37.5688C29.994 37.8279 29.7826 37.2118 29.439 36.4915C29.3535 36.3104 29.6388 37.2295 29.6581 37.2973C29.7316 37.5468 29.9651 38.1239 29.9769 38.1731C30.0656 38.5608 29.3611 36.627 29.3015 36.6492C29.3007 36.6531 29.4387 37.0057 29.4465 37.043C29.471 37.16 29.4036 37.0247 29.4324 37.153C29.4996 37.4499 29.8241 38.3944 29.57 37.8684C29.5374 37.8001 29.155 36.6991 29.119 36.7715C29.1049 36.8012 29.0005 36.819 28.998 36.9002C28.9964 36.9811 29.1378 37.3281 29.1413 37.3441C29.231 37.8383 29.3258 38.0222 29.5268 38.728C29.7253 39.4312 29.1701 37.7819 29.0921 37.6037C29.0144 37.4259 29.092 37.8312 29.1236 37.9701C29.1555 38.1091 29.2489 38.3279 29.2623 38.4081C29.3479 38.9321 28.9508 37.6037 28.8368 37.3519C28.5692 36.7557 28.9293 37.9924 28.9091 38.1315C28.904 38.1691 28.8254 37.8871 28.8029 37.8659C28.7157 37.7859 28.8056 38.1772 28.6295 37.8504C28.6006 37.797 28.3145 37.0836 28.4554 37.6311C28.4756 37.71 28.5852 38.0087 28.5839 38.0843C28.5821 38.1977 28.5402 38.2843 28.471 38.1954C28.42 38.1297 28.2954 37.6209 28.3096 37.7873C28.3159 37.8615 28.4355 38.1435 28.4393 38.2586C28.4432 38.3735 28.3642 38.3847 28.3325 38.3838C28.3008 38.3826 28.201 38.0006 28.1909 37.976C28.1325 37.835 28.0236 37.6715 28.0191 37.6736C27.7665 37.7109 27.7296 38.411 27.4332 38.2762C27.4102 38.2664 27.3134 37.8721 27.3088 37.8666C27.2004 37.7237 27.5397 38.745 27.5905 39.1049C27.3773 38.3122 27.3906 38.4634 27.3213 38.3906C27.2877 38.355 27.2156 38.0459 27.2049 38.0152C27.0456 37.5619 27.1879 38.168 27.2153 38.2919C27.3166 38.7483 27.1481 38.2241 27.2152 38.529C27.2811 38.8311 27.4359 39.2634 27.389 39.2698C27.3005 38.9924 27.1341 38.2481 27.0688 38.1394C26.8216 37.731 26.7565 38.3751 26.6686 38.462C26.5845 38.5502 26.5392 38.5092 26.5057 38.6252C26.4442 38.8343 26.3502 38.2934 26.2254 38.0728C26.1008 37.853 26.4526 39.1376 26.5119 39.4188C26.5709 39.6992 26.4896 39.4155 26.5151 39.5712C26.5405 39.7266 26.6136 39.9097 26.5988 39.9732C26.5829 40.0363 26.3862 39.5604 26.3072 39.2746C26.1385 38.6684 26.0153 38.0172 26.001 38.2643C26.0002 38.2788 26.0946 38.6117 26.0874 38.6502C26.0269 38.9443 25.9003 38.9952 25.825 39.2518C25.8147 39.2875 25.9153 39.65 25.9101 39.6747C25.8556 39.9321 25.7518 39.3068 25.5384 38.6421C25.7587 39.5448 25.8528 40.1067 25.7691 40.1269C25.719 40.1398 25.6393 39.7457 25.5451 39.4773C25.5169 39.3965 25.5416 39.6727 25.4942 39.4906C25.34 38.8964 25.2209 38.2173 25.2017 38.5085C25.201 38.5221 25.2845 38.8455 25.2768 38.8687C25.2266 39.0193 25.0805 38.4009 24.9809 38.3542C24.9031 38.3181 24.8652 38.7281 24.8001 38.8091C25.0069 39.7761 24.8836 39.5684 24.7155 38.9165C24.6707 38.9576 24.6083 38.9361 24.5776 39.0398C24.567 39.0752 24.6346 39.3459 24.6385 39.3761C24.7005 39.8473 24.5477 39.2195 24.5318 39.1982C24.3607 38.9925 24.3646 39.4847 24.1616 39.0592C24.1543 39.0437 24.023 38.4129 24.0848 38.8837C24.0891 38.9158 24.1828 39.1937 24.1346 39.2297C24.0869 39.2672 24.0508 39.6236 23.9211 39.3552C23.8895 39.29 23.7497 38.8062 23.7874 39.204C23.7926 39.2578 23.8313 39.4314 23.8427 39.5304C23.8785 39.8449 23.7496 39.2342 23.8212 39.7608C23.8928 40.2876 23.9059 40.6781 23.761 40.3353C23.7565 40.3252 23.6493 39.8519 23.6265 39.8646C23.5901 39.8849 23.552 39.9935 23.513 39.9973C23.4939 39.9991 23.4529 39.707 23.4487 39.7023C23.2945 39.5687 23.252 39.8458 23.1335 39.9777C23.1115 40.0013 22.9741 39.6427 22.9768 39.9471C22.9786 40.2772 23.267 41.6031 23.0816 41.2882C23.0054 41.1568 22.6617 39.5258 22.714 40.3869C22.4979 40.2095 22.4118 40.6396 22.1898 40.382C22.1798 40.3704 22.0883 39.9583 22.0711 39.9683C22.0457 39.9833 22.0615 40.1784 22.0439 40.1941C21.9711 40.2645 21.8705 40.1164 21.7952 40.1561C21.7665 40.1704 21.8065 40.3577 21.7717 40.3731C21.7368 40.3878 21.6751 40.1474 21.644 40.2731C21.6208 40.3693 21.6577 40.8625 21.615 40.9191C21.5407 40.4425 21.5078 40.456 21.4283 40.3412C21.4133 40.3191 21.401 40.1546 21.3928 40.1359C21.3589 40.0567 21.3592 40.1943 21.3254 40.1082C21.3172 40.0876 21.2935 39.9306 21.2856 39.9051C21.2175 39.6841 21.2135 40.0489 21.2123 40.1094C21.2084 40.3443 21.1615 40.1488 21.1457 40.243C21.1297 40.3357 21.1892 40.4393 21.163 40.4971C21.1082 40.6151 21.0127 40.5983 20.9408 40.612C20.912 40.6164 20.9049 40.4263 20.9001 40.4226C20.8341 40.3851 20.8005 40.5853 20.7165 40.2301C20.8058 41.1649 20.6679 40.1456 20.6086 40.347C20.604 40.3633 20.6544 40.7882 20.6897 40.8503C20.7252 40.913 20.7463 40.7759 20.7971 40.8749C20.8089 40.8969 20.918 41.3142 20.9288 41.3415C21.0118 41.5475 20.923 40.8709 20.9204 40.8329C20.8943 40.4271 21.0203 40.8843 21.0414 40.9191C21.1361 41.0685 21.1837 40.9692 21.2608 41.0804C21.3112 41.1525 21.3862 41.6361 21.4162 41.6259C21.517 41.5959 21.4447 40.8896 21.6388 41.5103C21.6807 41.6435 21.7438 42.2042 21.7569 41.772C21.758 41.746 21.7538 41.3388 21.8276 41.6032C21.837 41.6368 21.8627 41.8053 21.8705 41.8202C21.9227 41.9174 21.9272 41.7853 21.9785 41.8559C22.0298 41.9266 22.0952 42.0339 22.1331 41.9814C22.156 41.9505 22.1401 41.6238 22.1405 41.5428C22.1408 41.3095 22.2424 41.6999 22.2198 41.4134C22.1965 41.1226 22.0822 40.6852 22.111 40.4909C22.1889 40.965 22.2719 41.4522 22.352 41.9307C22.4859 41.9322 22.5926 41.7863 22.73 41.8191C22.7472 41.8239 22.7752 42.0942 22.7949 42.107C22.8773 42.1611 22.916 41.97 23.0099 42.0568C23.0833 42.125 23.2041 42.4348 23.284 42.522C23.2187 41.9133 23.3508 42.1282 23.4111 42.0778C23.4321 42.0599 23.4008 41.8911 23.4084 41.8368C23.4372 41.6352 23.5059 42.1954 23.5396 42.2856C23.6849 42.6743 23.4634 41.3917 23.5564 41.4204C23.561 41.4205 23.7439 42.1178 23.7601 42.1631C23.8627 42.4512 23.7246 41.9204 23.7469 41.87C23.7876 41.778 23.7955 41.6078 23.9015 41.8182C23.933 41.8797 24.0657 42.331 24.0411 41.9848C24.0379 41.9393 23.9905 41.7003 23.9921 41.6864C24.0236 41.4517 24.1666 42.2066 24.2593 42.4677C24.3522 42.7295 24.3205 42.2067 24.3045 42.0529C24.2646 41.6572 24.2453 41.8834 24.236 41.8445C24.1263 41.3838 24.1892 41.4622 24.2181 41.4218C24.0791 40.6651 24.1371 40.7046 24.2485 41.3828C24.2606 41.4567 24.2188 41.3869 24.2181 41.4218C24.3913 42.1624 24.4695 42.2669 24.3953 41.5622C24.3602 41.2312 24.2586 40.8471 24.3716 40.9813C24.423 41.0422 24.5122 41.5773 24.5759 41.7227C24.7223 42.0569 24.7267 41.5517 24.8235 41.6275C24.859 41.6559 24.8905 41.9571 24.9171 41.9873C24.9876 42.0693 24.9903 41.8414 25.0709 41.9568C25.0783 41.9678 25.1308 42.2866 25.1494 42.2908C25.2921 42.3293 25.3655 42.1215 25.5017 42.1117C25.5675 42.107 25.7255 42.2872 25.7862 42.2489C25.8935 42.1852 25.9234 41.685 26.0542 41.7961C26.1387 41.8683 26.2013 42.2125 26.2834 42.4453C26.4435 42.8986 26.3575 42.0778 26.3406 41.9482C26.3399 41.9439 26.2639 41.8668 26.2538 41.6865C26.1864 41.3141 26.3395 41.9465 26.3406 41.9482C26.3306 41.8657 26.4262 41.7767 26.4642 41.8414C26.4849 41.8768 26.5552 42.2089 26.5647 42.2212C26.7877 42.5076 26.9649 42.5872 27.0805 42.4166C27.0815 42.4095 26.9852 42.0305 26.9887 42.0185C27.0347 41.8407 27.2102 42.299 27.3557 42.5712C27.5015 42.8427 27.5406 42.746 27.4172 42.0779C27.495 42.155 27.5007 41.8513 27.4998 41.6653C27.4989 41.4793 27.7014 42.2366 27.7094 42.2512C27.9618 42.7166 27.9229 42.2734 28.0337 42.1861C28.0873 42.1434 28.2459 42.2352 28.3382 42.3092C28.4119 42.369 28.3946 42.1822 28.4769 42.2902C28.488 42.3047 28.5772 42.6513 28.583 42.6643C28.755 43.0696 28.4921 42.2282 28.4615 42.0753C28.3498 41.5189 28.2914 41.2202 28.4337 41.4658C28.4659 41.5217 28.8606 42.7363 28.912 42.8035C28.9775 42.8881 28.8368 42.4512 28.9081 42.5506C28.9141 42.5588 28.9914 42.8301 29.0133 42.814C29.1151 42.743 29.1994 42.5601 29.3328 42.5623C29.3507 42.5617 29.4583 42.9996 29.4866 43.0058C29.6193 43.035 29.743 42.9937 29.7913 42.7654C29.8027 42.7079 29.6907 42.4063 29.6684 42.3143C29.5334 41.7574 29.8328 42.5429 29.8465 42.5564C30.1677 42.8955 30.0982 42.1303 30.4179 42.4193C30.4351 42.4365 30.8122 43.2723 30.6031 42.5243C30.5896 42.4745 30.3719 41.7094 30.5803 42.2155C30.5934 42.2472 30.7015 42.6424 30.7298 42.591C30.7577 42.5396 30.9146 42.7797 30.8234 42.3361C30.7956 42.1961 30.5721 41.4316 30.8375 42.0141C30.8546 42.055 31.4204 43.3845 31.1195 42.4391C31.0699 42.2835 30.7125 41.2952 30.9575 41.7819C31.005 41.8763 31.0615 42.1044 31.1437 42.2316C31.2706 42.4277 31.2406 42.1409 31.4631 42.5606C31.5019 42.635 31.7954 43.2902 31.6449 42.7683C31.6213 42.6866 31.4886 42.3605 31.4942 42.3169C31.5196 42.1083 31.6965 42.295 31.7016 42.0334C31.7046 41.941 31.4846 41.4157 31.4639 41.2605C31.4434 41.1054 31.4572 40.9431 31.5865 41.1719C31.7162 41.4008 32.0067 42.2613 32.0878 42.3077C32.0982 42.3136 32.1083 42.3189 32.1182 42.3235C32.4469 42.4721 32.473 41.9142 32.674 41.7408C32.7041 41.7144 32.8019 42.0257 32.8558 42.0078C33.0551 41.9444 33.497 42.06 33.3773 41.3508C33.2747 40.7877 32.9409 40.4924 32.9421 40.2415C32.9418 40.1227 33.4343 41.0406 33.4601 41.0637C33.7127 41.305 33.5893 40.847 33.7465 40.9196C33.7792 40.9344 33.9443 41.3233 33.9704 41.3315C34.0614 41.3625 34.0438 41.1562 34.1159 41.1527C34.1489 41.1519 34.2878 41.4403 34.3006 41.4037C34.3327 41.3194 34.3222 41.1685 34.2395 40.8696C34.2318 40.8426 34.0181 40.5103 34.0516 40.4726C34.1066 40.412 34.0491 40.1037 34.2633 40.3244C34.3277 40.3909 34.6677 41.0283 34.4813 40.5563C34.4425 40.4576 34.0193 39.7032 34.4299 40.3258C34.4973 40.4307 35.0758 41.2487 34.8106 40.6479C34.7408 40.4898 34.4301 39.8526 34.5096 39.9321C34.5217 39.945 34.6944 40.2912 34.7346 40.3088C34.873 40.3648 34.9329 40.2721 35.07 40.3188C35.1071 40.3317 35.2731 40.6971 35.3225 40.7048C35.4587 40.726 35.5217 40.5516 35.5423 40.3805C35.5498 40.3165 35.3614 40.0566 35.3456 40.0246C35.0856 39.5071 35.5058 40.1514 35.5414 40.1797C35.7557 40.3494 35.6224 39.9959 35.7389 40.0218C35.7706 40.0278 35.9512 40.3473 35.9721 40.3718C36.1792 40.6074 35.8028 40.0782 35.7883 39.9971C35.7485 39.7669 35.8398 39.728 35.9328 39.7071C35.9673 39.6998 36.1672 40.0745 36.1957 40.0633C36.3703 40.0023 36.4793 39.8416 36.4801 39.5315C36.4793 39.4729 36.2844 39.2293 36.2482 39.1656C35.9942 38.7224 36.4357 39.2365 36.4848 39.2772C36.7077 39.4679 36.5674 39.2225 36.6418 39.2194C37.0055 39.2066 37.1667 38.7588 37.2838 38.4515C37.4446 38.0425 37.4422 37.6095 37.6967 37.3691C37.7125 37.3533 37.9512 37.6438 37.968 37.6332C38.1735 37.4804 38.2141 37.1581 38.4143 37.0048C38.4306 36.9911 38.6528 37.2508 38.6867 37.2358C38.7579 37.2064 38.7879 37.1105 38.7458 36.974C38.7257 36.9082 38.5008 36.7582 38.4848 36.6967C38.4473 36.5537 38.471 36.4638 38.546 36.4254C38.5783 36.4092 38.795 36.6763 38.8181 36.6371C38.9842 36.3717 39.1403 36.1053 38.9558 35.571C38.9429 35.5341 38.4809 35.1391 38.5884 35.1727C38.7195 35.2738 38.8722 35.3963 39.0115 35.5061C39.246 35.1452 39.218 34.6081 39.3058 34.1829C39.3093 34.1645 39.5244 34.3475 39.5318 34.312C39.5762 34.1082 39.6665 33.9442 39.4988 33.6096C39.4825 33.5769 39.1194 33.3574 39.1878 33.3363C39.2002 33.3328 39.2676 33.2784 39.3481 33.3036C39.3601 33.3076 39.5214 33.4261 39.531 33.4005C39.5838 33.2505 39.5696 33.0511 39.5013 32.8353C39.4902 32.8004 39.3267 32.7338 39.3178 32.7086C39.2595 32.5333 39.3979 32.4607 39.2847 32.2642C39.2107 32.1342 38.956 32.0224 38.7259 31.8469C38.6937 31.8223 38.7043 31.7755 38.5667 31.6956C38.2213 31.495 37.8262 31.2977 37.4587 31.0812C37.3978 31.0454 37.4617 31.0413 37.3934 31.003C37.3934 31.003 37.3934 31.003 37.3934 31.003C37.3732 30.9917 37.3416 30.9775 37.2915 30.9583C37.2769 30.9528 37.1783 30.9452 37.1028 30.9143C37.0506 30.8929 36.9196 30.8046 36.8473 30.7802C36.7745 30.7555 36.8805 30.8334 36.788 30.8081C36.6941 30.7818 36.5382 30.6815 36.4699 30.6957ZM27.492 40.8286C27.4358 40.4542 27.7962 41.7965 27.6666 41.4823C27.6599 41.4656 27.4947 40.8469 27.492 40.8286ZM22.4825 41.1201C22.471 40.7278 22.6019 41.3043 22.6142 41.6065C22.6256 41.9048 22.4855 41.2372 22.4825 41.1201ZM21.8886 40.8645C21.9066 40.5787 22.0972 41.7323 21.9921 41.4946C21.9861 41.4811 21.8875 40.8808 21.8886 40.8645ZM38.5891 31.9798C38.5824 31.9752 38.5881 31.9404 38.5952 31.9436C38.7668 32.0214 38.7583 32.0934 38.5891 31.9798ZM21.3036 40.6327C21.3018 40.4922 21.3797 40.6479 21.3822 40.8239C21.384 40.964 21.3054 40.8057 21.3036 40.6327ZM29.1331 38.8166C29.1268 38.7955 29.1429 38.7694 29.1815 38.8877C29.3058 39.2687 29.2386 39.1714 29.1331 38.8166ZM20.3843 40.6948C20.5196 40.6625 20.5021 39.9357 20.3687 40.0549C20.3442 40.0747 20.4554 40.2597 20.4303 40.329C20.3831 40.4492 20.2853 40.0403 20.2522 40.2764C20.2458 40.3167 20.3765 40.6963 20.3847 40.6958C20.3846 40.6955 20.3845 40.6951 20.3843 40.6948ZM27.0908 39.2117C27.0869 39.1938 27.113 39.1688 27.1184 39.1863C27.248 39.6089 27.1944 39.6583 27.0908 39.2117ZM30.0834 37.4992C30.07 37.4592 30.1238 37.396 30.14 37.4313C30.4587 38.1405 30.3459 38.2721 30.0834 37.4992ZM24.8044 38.8353C24.6906 38.4642 24.643 38.4345 24.7156 38.916C24.7436 38.8814 24.7761 38.8682 24.8044 38.8353Z" fill="#998E8B"/>
</svg>
