<svg width="833" height="744" viewBox="0 0 833 744" fill="none" xmlns="http://www.w3.org/2000/svg">
<path d="M393.008 583.499C393.008 583.499 345.385 686.74 342.008 694.499C338.63 702.259 320.204 692.583 323.008 684.5C325.811 676.417 379.008 583.499 379.008 583.499C375.841 577.833 369.008 564.6 367.008 557C358.608 557 343.174 549.667 336.508 546C331.674 544.5 317.908 539.8 301.508 533C280.708 520.2 273.508 505.333 272.508 499.5C273.008 495 273.708 483.5 272.508 473.5C264.508 465 260.008 449.5 258.508 437C257.308 427 262.341 418.833 265.008 416C261.008 412.5 253.208 407.6 254.008 416C255.008 426.5 249.508 434.5 241.008 452C232.508 469.5 198.008 482.5 190.008 483.5C188.508 485.5 176.508 491.5 163.508 497.5C150.508 503.5 133.508 505 108.008 490.5C87.6076 478.9 82.8409 463.333 83.0076 457C82.5076 456.833 79.5076 456.3 71.5076 455.5C41.0076 452.5 28.0076 432.5 26.5076 414C25.0076 395.5 28.0076 394 32.0076 382C25.6076 378.8 25.0076 369 25.5076 364.5C23.841 357.833 20.4078 341.6 20.0078 330C19.5078 315.5 44.0078 297 58.5078 290C65.0078 268 95.0078 265 100.008 265.5C101.008 264 105.508 261.5 115.508 257C108.308 256.6 105.174 251.167 104.508 248.5C103.674 247.833 100.108 246.1 92.5078 244.5C83.0078 242.5 84.5078 239.5 79.0078 237C73.5573 234.522 66.1426 220.751 62.6032 214.177L62.5078 214C64.5078 211.5 65.5078 193.5 67.0078 185.5C58.0078 178.5 56.5077 167 54.0077 158.5C51.5077 150 54.5077 152 59.5077 139.5C64.5077 127 86.5077 114 103.508 108.5C105.008 91.5 126.508 73 138.008 72C146.008 66.4 157.674 67 162.508 68C163.508 66.5 167.808 63.2 177.008 62C183.508 54 197.008 50 205.008 46.5C213.008 43 231.008 47 237.008 49C243.008 51 247.508 48 257.008 48C264.608 48 272.841 64.6667 276.008 73H290.508C294.008 73 299.508 82 299.508 87.5C303.008 89.5 304.008 96.5 304.508 104.5C310.908 109.3 315.341 143.667 315.508 149.5L320.508 148.5C315.508 138.5 316.108 105.5 318.508 101.5C314.508 97.9 313.174 84.6667 313.008 78.5C312.008 76.6667 311.808 71.7 319.008 66.5C319.008 49 328.008 49.5 335.508 50C343.908 42.4 364.674 39.8333 374.008 39.5C375.341 37.3333 379.608 32.6 386.008 31C388.008 24.6 394.508 21 397.508 20C399.174 19.9996 403.808 20.6989 409.008 23.4989C424.508 17.9989 443.008 22.499 450.508 26.499C457.708 18.099 470.508 21.9993 476.008 24.9995C478.008 24.4995 484.808 23.7995 496.008 24.9995C510.008 26.4995 524.508 46.9995 526.508 53.9995C542.508 54.4995 547.508 56.4995 556.008 58.4995C564.508 60.4995 569.508 71.4995 574.508 72.4995C579.508 73.4995 580.008 78.4995 578.008 85.9995C591.008 100.999 577.508 123.999 574.508 127.499C572.108 130.299 569.508 135.999 568.508 138.499L572.508 140.999C577.841 134.166 589.908 120.299 595.508 119.499C594.008 116.499 596.008 114.499 603.508 108.499C609.508 103.699 621.674 103.166 627.008 103.499C628.341 102.166 632.508 99.2999 638.508 98.4995C643.508 100.499 648.508 101 661.508 99.5C671.908 98.3 687.508 106 694.008 110C694.674 112.166 697.608 116.098 704.008 114.498C712.008 112.498 723.008 117.998 732.508 117.998C740.108 117.998 743.341 123.998 744.008 126.998C743.674 127.832 743.808 129.998 747.008 131.998C751.008 134.498 751.508 136.998 756.508 143.998C784.508 154.498 790.008 167.498 790.508 175.998C809.008 187.498 804.008 217.498 798.008 226.998C803.508 231.998 807.008 239.498 810.008 243.498C812.408 246.698 812.341 249.832 812.008 250.998C809.508 252.832 804.608 257.198 805.008 259.998C805.508 263.498 798.508 267.998 791.008 277.498C790.508 290.498 774.508 303.498 759.508 312.498C747.508 319.698 727.508 321.498 719.008 321.498C718.674 322.165 717.808 324.498 717.008 328.498C719.508 329.998 732.508 343.998 737.508 349.998C742.508 355.998 741.508 368.498 743.008 376.998C744.208 383.798 732.174 393.832 726.008 397.998C724.341 402.665 720.308 412.998 717.508 416.998C714.708 420.998 701.341 426.332 695.008 428.498C692.341 429.165 685.908 431.398 681.508 434.998C677.108 438.598 665.674 439.165 660.508 438.998C657.674 440.165 651.408 442.998 649.008 444.998C646.608 444.998 638.341 448.332 634.508 449.998C632.008 450.498 623.608 451.398 610.008 450.998C593.008 450.498 593.008 444.498 584.508 438.998C586.108 441.798 585.174 453.166 584.508 458.499C583.508 458.333 581.708 458.599 582.508 460.999C583.508 463.999 587.008 469.499 586.508 485.499C586.108 498.299 570.674 512.166 563.008 517.499L551.508 532.499C547.508 539.333 535.608 555.599 520.008 565.999C500.508 578.999 467.508 572.499 456.508 571.499C457.708 576.699 453.674 578.333 451.508 578.499C451.508 578.499 501.508 681.499 505.008 689.999C508.508 698.499 482.008 708 479.008 698.499C476.008 688.999 442.508 597.999 442.508 597.999C447.674 622.666 458.208 673.399 459.008 678.999C459.808 684.599 450.008 685.333 445.008 684.999C445.008 684.999 447.508 701.999 449.008 713.499C450.508 725 425.008 726.5 425.008 715.999C425.008 705.499 419.508 596.999 419.508 596.999C419.508 596.999 418.008 696.499 418.008 703.999C418.008 711.5 400.508 710 400.508 700.999C400.508 691.999 406.008 595.499 406.008 595.499C406.008 595.499 386.508 703.499 384.008 713.499C381.508 723.5 355.008 718 358.008 705.999C361.008 693.999 393.008 583.499 393.008 583.499Z" stroke="black" stroke-width="40" stroke-linejoin="round"/>
</svg>
